<svg width="401" height="255" viewBox="0 0 401 255" fill="none" xmlns="http://www.w3.org/2000/svg">
<path d="M364.499 24.41C364.837 21.9776 361.401 19.9754 358.825 19.7689C357.591 19.6656 356.312 19.8549 355.147 19.4476C352.623 18.5699 351.614 15.3056 349.152 14.2844C347.311 13.5042 345.188 14.1983 343.415 15.099C341.643 15.9997 339.864 17.1299 337.868 17.2561C336.147 17.3651 334.248 16.7226 332.705 17.5716C331.557 18.2027 330.984 19.505 329.94 20.2737C328.895 21.0425 327.587 21.1859 326.32 21.2547C325.052 21.3236 323.744 21.335 322.591 21.8628C321.437 22.3906 320.485 23.5839 320.726 24.8575L364.499 24.41Z" fill="#F5F5F5"/>
<path d="M88.1587 67.7294H39.6704V221.398H88.1587V67.7294Z" fill="#F5F5F5"/>
<path d="M88.1592 67.7294H63.915V220.973H88.1592V67.7294Z" fill="#EBEBEB"/>
<path d="M62.3317 52.647H45.207V67.735H62.3317V52.647Z" fill="#F5F5F5"/>
<path d="M62.3255 52.647H58.2466V67.735H62.3255V52.647Z" fill="#EBEBEB"/>
<path d="M35.6318 67.7295V66.8517H89.5759V67.7295" fill="#E0E0E0"/>
<path d="M53.3416 74.3096H49.2397V82.9608H53.3416V74.3096Z" fill="#FAFAFA"/>
<path d="M63.9145 86.3685C63.9145 86.4545 58.4874 86.5291 51.7925 86.5291C45.0975 86.5291 39.6704 86.4545 39.6704 86.3685C39.6704 86.2824 45.0975 86.2021 51.7925 86.2021C58.4874 86.2021 63.9145 86.271 63.9145 86.3685Z" fill="#E0E0E0"/>
<path d="M77.7982 74.3096H73.6963V82.9608H77.7982V74.3096Z" fill="#E0E0E0"/>
<path d="M88.3647 86.3685C88.3647 86.4545 82.9376 86.5291 76.2427 86.5291C69.5477 86.5291 64.1206 86.4545 64.1206 86.3685C64.1206 86.2824 69.5477 86.2021 76.2427 86.2021C82.9376 86.2021 88.3647 86.271 88.3647 86.3685Z" fill="#E0E0E0"/>
<path d="M77.7982 91.4917H73.6963V100.149H77.7982V91.4917Z" fill="#E0E0E0"/>
<path d="M88.3647 103.545C88.3647 103.631 82.9376 103.706 76.2427 103.706C69.5477 103.706 64.1206 103.631 64.1206 103.545C64.1206 103.459 69.5477 103.379 76.2427 103.379C82.9376 103.379 88.3647 103.453 88.3647 103.545Z" fill="#E0E0E0"/>
<path d="M77.7982 109.19H73.6963V117.841H77.7982V109.19Z" fill="#E0E0E0"/>
<path d="M88.3647 121.243C88.3647 121.335 82.9376 121.41 76.2427 121.41C69.5477 121.41 64.1206 121.335 64.1206 121.243C64.1206 121.151 69.5477 121.077 76.2427 121.077C82.9376 121.077 88.3647 121.151 88.3647 121.243Z" fill="#E0E0E0"/>
<path d="M77.7982 126.894H73.6963V135.545H77.7982V126.894Z" fill="#E0E0E0"/>
<path d="M88.3647 138.941C88.3647 139.033 82.9376 139.108 76.2427 139.108C69.5477 139.108 64.1206 139.033 64.1206 138.941C64.1206 138.85 69.5477 138.775 76.2427 138.775C82.9376 138.775 88.3647 138.85 88.3647 138.941Z" fill="#E0E0E0"/>
<path d="M77.7982 144.087H73.6963V152.739H77.7982V144.087Z" fill="#E0E0E0"/>
<path d="M88.3647 156.135C88.3647 156.227 82.9376 156.301 76.2427 156.301C69.5477 156.301 64.1206 156.227 64.1206 156.135C64.1206 156.043 69.5477 155.969 76.2427 155.969C82.9376 155.969 88.3647 156.043 88.3647 156.135Z" fill="#E0E0E0"/>
<path d="M77.7982 161.35H73.6963V170.001H77.7982V161.35Z" fill="#E0E0E0"/>
<path d="M77.7982 178.836H73.6963V187.487H77.7982V178.836Z" fill="#E0E0E0"/>
<path d="M88.3647 173.397C88.3647 173.489 82.9376 173.564 76.2427 173.564C69.5477 173.564 64.1206 173.489 64.1206 173.397C64.1206 173.306 69.5477 173.237 76.2427 173.237C82.9376 173.237 88.3647 173.311 88.3647 173.397Z" fill="#E0E0E0"/>
<path d="M53.3416 91.7554H49.2397V100.407H53.3416V91.7554Z" fill="#FAFAFA"/>
<path d="M63.9145 103.803C63.9145 103.895 58.4874 103.969 51.7925 103.969C45.0975 103.969 39.6704 103.895 39.6704 103.803C39.6704 103.711 45.0975 103.637 51.7925 103.637C58.4874 103.637 63.9145 103.711 63.9145 103.803Z" fill="#E0E0E0"/>
<path d="M53.3416 109.196H49.2397V117.847H53.3416V109.196Z" fill="#FAFAFA"/>
<path d="M63.9145 121.249C63.9145 121.341 58.4874 121.415 51.7925 121.415C45.0975 121.415 39.6704 121.341 39.6704 121.249C39.6704 121.157 45.0975 121.083 51.7925 121.083C58.4874 121.083 63.9145 121.157 63.9145 121.249Z" fill="#E0E0E0"/>
<path d="M53.3416 126.642H49.2397V135.293H53.3416V126.642Z" fill="#FAFAFA"/>
<path d="M63.9145 138.695C63.9145 138.781 58.4874 138.855 51.7925 138.855C45.0975 138.855 39.6704 138.781 39.6704 138.695C39.6704 138.609 45.0975 138.528 51.7925 138.528C58.4874 138.528 63.9145 138.603 63.9145 138.695Z" fill="#E0E0E0"/>
<path d="M53.3416 144.087H49.2397V152.739H53.3416V144.087Z" fill="#FAFAFA"/>
<path d="M63.9145 156.135C63.9145 156.227 58.4874 156.301 51.7925 156.301C45.0975 156.301 39.6704 156.227 39.6704 156.135C39.6704 156.043 45.0975 155.969 51.7925 155.969C58.4874 155.969 63.9145 156.043 63.9145 156.135Z" fill="#E0E0E0"/>
<path d="M53.3416 161.528H49.2397V170.179H53.3416V161.528Z" fill="#FAFAFA"/>
<path d="M63.9145 173.569C63.9145 173.661 58.4874 173.736 51.7925 173.736C45.0975 173.736 39.6704 173.661 39.6704 173.569C39.6704 173.478 45.0975 173.403 51.7925 173.403C58.4874 173.403 63.9145 173.489 63.9145 173.569Z" fill="#E0E0E0"/>
<path d="M53.3416 178.974H49.2397V187.625H53.3416V178.974Z" fill="#FAFAFA"/>
<path d="M279.484 32.6826H209.592V254.184H279.484V32.6826Z" fill="#F5F5F5"/>
<path d="M279.48 32.6826H244.536V253.576H279.48V32.6826Z" fill="#EBEBEB"/>
<path d="M242.251 10.9399H217.571V32.6885H242.251V10.9399Z" fill="#F5F5F5"/>
<path d="M242.251 10.9399H236.371V32.6885H242.251V10.9399Z" fill="#EBEBEB"/>
<path d="M203.77 32.6826V31.4148H281.527V32.6826" fill="#E0E0E0"/>
<path d="M229.304 42.1715H223.39V54.6436H229.304V42.1715Z" fill="#FAFAFA"/>
<path d="M244.535 59.537C244.535 59.669 236.716 59.778 227.066 59.778C217.417 59.778 209.592 59.669 209.592 59.537C209.592 59.4051 217.411 59.3018 227.066 59.3018C236.722 59.3018 244.535 59.4051 244.535 59.537Z" fill="#E0E0E0"/>
<path d="M264.55 42.1715H258.636V54.6436H264.55V42.1715Z" fill="#E0E0E0"/>
<path d="M279.789 59.537C279.789 59.669 271.964 59.778 262.314 59.778C252.665 59.778 244.84 59.669 244.84 59.537C244.84 59.4051 252.665 59.3018 262.314 59.3018C271.964 59.3018 279.789 59.4051 279.789 59.537Z" fill="#E0E0E0"/>
<path d="M264.55 66.9377H258.636V79.4097H264.55V66.9377Z" fill="#E0E0E0"/>
<path d="M279.789 84.3091C279.789 84.441 271.964 84.5443 262.314 84.5443C252.665 84.5443 244.84 84.441 244.84 84.3091C244.84 84.1771 252.665 84.0681 262.314 84.0681C271.964 84.0681 279.789 84.1771 279.789 84.3091Z" fill="#E0E0E0"/>
<path d="M264.55 92.4497H258.636V104.922H264.55V92.4497Z" fill="#E0E0E0"/>
<path d="M279.789 109.821C279.789 109.953 271.964 110.062 262.314 110.062C252.665 110.062 244.84 109.953 244.84 109.821C244.84 109.689 252.665 109.58 262.314 109.58C271.964 109.58 279.789 109.689 279.789 109.821Z" fill="#E0E0E0"/>
<path d="M264.55 117.967H258.636V130.439H264.55V117.967Z" fill="#E0E0E0"/>
<path d="M279.789 135.333C279.789 135.465 271.964 135.574 262.314 135.574C252.665 135.574 244.84 135.465 244.84 135.333C244.84 135.201 252.665 135.098 262.314 135.098C271.964 135.098 279.789 135.201 279.789 135.333Z" fill="#E0E0E0"/>
<path d="M264.55 142.751H258.636V155.223H264.55V142.751Z" fill="#E0E0E0"/>
<path d="M279.789 160.122C279.789 160.248 271.964 160.357 262.314 160.357C252.665 160.357 244.84 160.248 244.84 160.122C244.84 159.996 252.665 159.881 262.314 159.881C271.964 159.881 279.789 159.99 279.789 160.122Z" fill="#E0E0E0"/>
<path d="M264.55 167.632H258.636V180.104H264.55V167.632Z" fill="#E0E0E0"/>
<path d="M264.55 192.845H258.636V205.318H264.55V192.845Z" fill="#E0E0E0"/>
<path d="M279.789 185.003C279.789 185.135 271.964 185.244 262.314 185.244C252.665 185.244 244.84 185.135 244.84 185.003C244.84 184.871 252.665 184.768 262.314 184.768C271.964 184.768 279.789 184.871 279.789 185.003Z" fill="#E0E0E0"/>
<path d="M229.304 67.3164H223.39V79.7884H229.304V67.3164Z" fill="#FAFAFA"/>
<path d="M244.535 84.6876C244.535 84.8138 236.716 84.9228 227.066 84.9228C217.417 84.9228 209.592 84.8138 209.592 84.6876C209.592 84.5614 217.411 84.4467 227.066 84.4467C236.722 84.4467 244.535 84.5557 244.535 84.6876Z" fill="#E0E0E0"/>
<path d="M229.304 92.4612H223.39V104.933H229.304V92.4612Z" fill="#FAFAFA"/>
<path d="M244.535 109.832C244.535 109.959 236.716 110.068 227.066 110.068C217.417 110.068 209.592 109.959 209.592 109.832C209.592 109.706 217.411 109.591 227.066 109.591C236.722 109.591 244.535 109.7 244.535 109.832Z" fill="#E0E0E0"/>
<path d="M229.304 117.606H223.39V130.078H229.304V117.606Z" fill="#FAFAFA"/>
<path d="M244.535 134.977C244.535 135.103 236.716 135.212 227.066 135.212C217.417 135.212 209.592 135.103 209.592 134.977C209.592 134.851 217.411 134.736 227.066 134.736C236.722 134.736 244.535 134.845 244.535 134.977Z" fill="#E0E0E0"/>
<path d="M229.304 142.751H223.39V155.223H229.304V142.751Z" fill="#FAFAFA"/>
<path d="M244.535 160.122C244.535 160.248 236.716 160.357 227.066 160.357C217.417 160.357 209.592 160.248 209.592 160.122C209.592 159.996 217.411 159.881 227.066 159.881C236.722 159.881 244.535 159.99 244.535 160.122Z" fill="#E0E0E0"/>
<path d="M229.304 167.896H223.39V180.368H229.304V167.896Z" fill="#FAFAFA"/>
<path d="M244.535 185.267C244.535 185.399 236.716 185.502 227.066 185.502C217.417 185.502 209.592 185.399 209.592 185.267C209.592 185.135 217.411 185.026 227.066 185.026C236.722 185.026 244.535 185.135 244.535 185.267Z" fill="#E0E0E0"/>
<path d="M229.304 193.04H223.39V205.513H229.304V193.04Z" fill="#FAFAFA"/>
<path d="M304.148 133.165H265.963V254.179H304.148V133.165Z" fill="#F5F5F5"/>
<path d="M304.148 133.165H285.056V253.846H304.148V133.165Z" fill="#EBEBEB"/>
<path d="M283.804 121.283H270.322V133.164H283.804V121.283Z" fill="#F5F5F5"/>
<path d="M283.804 121.283H280.592V133.164H283.804V121.283Z" fill="#EBEBEB"/>
<path d="M262.778 133.164V132.47H305.266V133.164" fill="#E0E0E0"/>
<path d="M276.731 138.345H273.501V145.16H276.731V138.345Z" fill="#FAFAFA"/>
<path d="M285.055 147.839C285.055 147.908 280.781 147.966 275.509 147.966C270.237 147.966 265.963 147.908 265.963 147.839C265.963 147.771 270.237 147.707 275.509 147.707C280.781 147.707 285.055 147.753 285.055 147.839Z" fill="#E0E0E0"/>
<path d="M295.99 138.345H292.76V145.16H295.99V138.345Z" fill="#E0E0E0"/>
<path d="M304.314 147.839C304.314 147.908 300.04 147.966 294.768 147.966C289.496 147.966 285.222 147.908 285.222 147.839C285.222 147.771 289.496 147.707 294.768 147.707C300.04 147.707 304.314 147.753 304.314 147.839Z" fill="#E0E0E0"/>
<path d="M295.99 151.878H292.76V158.694H295.99V151.878Z" fill="#E0E0E0"/>
<path d="M304.314 161.367C304.314 161.442 300.04 161.499 294.768 161.499C289.496 161.499 285.222 161.442 285.222 161.367C285.222 161.292 289.496 161.235 294.768 161.235C300.04 161.235 304.314 161.298 304.314 161.367Z" fill="#E0E0E0"/>
<path d="M295.99 165.819H292.76V172.634H295.99V165.819Z" fill="#E0E0E0"/>
<path d="M304.314 175.29C304.314 175.359 300.04 175.422 294.768 175.422C289.496 175.422 285.222 175.359 285.222 175.29C285.222 175.222 289.496 175.159 294.768 175.159C300.04 175.159 304.314 175.233 304.314 175.29Z" fill="#E0E0E0"/>
<path d="M295.99 179.754H292.76V186.569H295.99V179.754Z" fill="#E0E0E0"/>
<path d="M304.314 189.248C304.314 189.317 300.04 189.375 294.768 189.375C289.496 189.375 285.222 189.317 285.222 189.248C285.222 189.179 289.496 189.116 294.768 189.116C300.04 189.116 304.314 189.174 304.314 189.248Z" fill="#E0E0E0"/>
<path d="M295.99 193.299H292.76V200.114H295.99V193.299Z" fill="#E0E0E0"/>
<path d="M304.314 202.787C304.314 202.862 300.04 202.919 294.768 202.919C289.496 202.919 285.222 202.862 285.222 202.787C285.222 202.713 289.496 202.656 294.768 202.656C300.04 202.656 304.314 202.713 304.314 202.787Z" fill="#E0E0E0"/>
<path d="M295.99 206.895H292.76V213.71H295.99V206.895Z" fill="#E0E0E0"/>
<path d="M295.99 220.664H292.76V227.479H295.99V220.664Z" fill="#E0E0E0"/>
<path d="M304.314 216.384C304.314 216.453 300.04 216.51 294.768 216.51C289.496 216.51 285.222 216.453 285.222 216.384C285.222 216.315 289.496 216.252 294.768 216.252C300.04 216.252 304.314 216.309 304.314 216.384Z" fill="#E0E0E0"/>
<path d="M276.731 152.085H273.501V158.9H276.731V152.085Z" fill="#FAFAFA"/>
<path d="M285.055 161.574C285.055 161.648 280.781 161.705 275.509 161.705C270.237 161.705 265.963 161.648 265.963 161.574C265.963 161.499 270.237 161.442 275.509 161.442C280.781 161.442 285.055 161.522 285.055 161.574Z" fill="#E0E0E0"/>
<path d="M276.731 165.825H273.501V172.64H276.731V165.825Z" fill="#FAFAFA"/>
<path d="M285.055 175.29C285.055 175.359 280.781 175.417 275.509 175.417C270.237 175.417 265.963 175.359 265.963 175.29C265.963 175.222 270.237 175.159 275.509 175.159C280.781 175.159 285.055 175.239 285.055 175.29Z" fill="#E0E0E0"/>
<path d="M276.731 179.559H273.501V186.374H276.731V179.559Z" fill="#FAFAFA"/>
<path d="M285.055 189.059C285.055 189.134 280.781 189.191 275.509 189.191C270.237 189.191 265.963 189.134 265.963 189.059C265.963 188.984 270.237 188.933 275.509 188.933C280.781 188.933 285.055 188.979 285.055 189.059Z" fill="#E0E0E0"/>
<path d="M276.731 193.299H273.501V200.114H276.731V193.299Z" fill="#FAFAFA"/>
<path d="M285.055 202.787C285.055 202.862 280.781 202.919 275.509 202.919C270.237 202.919 265.963 202.862 265.963 202.787C265.963 202.713 270.237 202.656 275.509 202.656C280.781 202.656 285.055 202.713 285.055 202.787Z" fill="#E0E0E0"/>
<path d="M276.731 207.033H273.501V213.848H276.731V207.033Z" fill="#FAFAFA"/>
<path d="M285.055 216.527C285.055 216.596 280.781 216.654 275.509 216.654C270.237 216.654 265.963 216.596 265.963 216.527C265.963 216.459 270.237 216.395 275.509 216.395C280.781 216.395 285.055 216.453 285.055 216.527Z" fill="#E0E0E0"/>
<path d="M276.731 220.773H273.501V227.588H276.731V220.773Z" fill="#FAFAFA"/>
<path d="M112.65 176.162H71.5391V254.184H112.65V176.162Z" fill="#E0E0E0"/>
<path d="M112.649 176.162H93.373V254.184H112.649V176.162Z" fill="#EBEBEB"/>
<path d="M83.8562 183.5H80.1616V192.478H83.8562V183.5Z" fill="#F5F5F5"/>
<path d="M83.8562 218.65H80.1616V227.628H83.8562V218.65Z" fill="#F5F5F5"/>
<path d="M93.3735 196.007C93.3735 196.087 88.4856 196.144 82.4733 196.144C76.4611 196.144 71.5732 196.087 71.5732 196.007C71.5732 195.926 76.4611 195.869 82.4733 195.869C88.4856 195.869 93.3735 195.943 93.3735 196.007Z" fill="#F5F5F5"/>
<path d="M83.8562 201.21H80.1616V210.188H83.8562V201.21Z" fill="#F5F5F5"/>
<path d="M93.3735 213.728C93.3735 213.802 88.4856 213.865 82.4733 213.865C76.4611 213.865 71.5732 213.802 71.5732 213.728C71.5732 213.653 76.4611 213.584 82.4733 213.584C88.4856 213.584 93.3735 213.636 93.3735 213.728Z" fill="#F5F5F5"/>
<path d="M101.164 183.5H97.4697V192.478H101.164V183.5Z" fill="#E0E0E0"/>
<path d="M109.185 183.5H105.491V192.478H109.185V183.5Z" fill="#E0E0E0"/>
<path d="M101.164 200.544H97.4697V209.523H101.164V200.544Z" fill="#E0E0E0"/>
<path d="M109.185 200.544H105.491V209.523H109.185V200.544Z" fill="#E0E0E0"/>
<path d="M101.164 217.583H97.4697V226.561H101.164V217.583Z" fill="#E0E0E0"/>
<path d="M109.185 217.583H105.491V226.561H109.185V217.583Z" fill="#E0E0E0"/>
<path d="M115.742 174.275H68.4531V176.231H115.742V174.275Z" fill="#E0E0E0"/>
<path d="M112.936 176.438C112.936 176.512 103.757 176.576 92.4154 176.576C81.0736 176.576 71.8945 176.512 71.8945 176.438C71.8945 176.363 81.0736 176.294 92.4154 176.294C103.757 176.294 112.936 176.335 112.936 176.438Z" fill="#EBEBEB"/>
<path d="M72.0091 254.127H5.80528L5.5127 149.492H71.7222L72.0091 254.127Z" fill="#EBEBEB"/>
<path d="M71.722 149.492H38.6201V254.127H71.722V149.492Z" fill="#E0E0E0"/>
<path d="M36.4526 128.89H13.0747V149.492H36.4526V128.89Z" fill="#EBEBEB"/>
<path d="M36.4524 128.89H30.8818V149.492H36.4524V128.89Z" fill="#E0E0E0"/>
<path d="M73.6618 148.287H0V149.486H73.6618V148.287Z" fill="#E0E0E0"/>
<path d="M24.187 158.476H18.582V170.294H24.187V158.476Z" fill="white"/>
<path d="M38.6203 174.929C38.6203 175.055 31.2083 175.153 22.0694 175.153C12.9305 175.153 5.5127 175.055 5.5127 174.929C5.5127 174.803 12.9248 174.717 22.0694 174.717C31.214 174.717 38.6203 174.803 38.6203 174.929Z" fill="#E0E0E0"/>
<path d="M57.5815 158.476H51.9766V170.294H57.5815V158.476Z" fill="#F5F5F5"/>
<path d="M72.0096 174.929C72.0096 175.055 64.5975 175.153 55.4587 175.153C46.3198 175.153 38.9077 175.055 38.9077 174.929C38.9077 174.803 46.314 174.705 55.4587 174.705C64.6033 174.705 72.0096 174.803 72.0096 174.929Z" fill="#EBEBEB"/>
<path d="M57.5815 181.934H51.9766V193.752H57.5815V181.934Z" fill="#F5F5F5"/>
<path d="M72.0096 198.393C72.0096 198.514 64.5975 198.617 55.4587 198.617C46.3198 198.617 38.9077 198.514 38.9077 198.393C38.9077 198.273 46.314 198.164 55.4587 198.164C64.6033 198.164 72.0096 198.267 72.0096 198.393Z" fill="#EBEBEB"/>
<path d="M57.5815 206.103H51.9766V217.921H57.5815V206.103Z" fill="#F5F5F5"/>
<path d="M72.0096 222.563C72.0096 222.683 64.5975 222.786 55.4587 222.786C46.3198 222.786 38.9077 222.683 38.9077 222.563C38.9077 222.442 46.314 222.333 55.4587 222.333C64.6033 222.333 72.0096 222.436 72.0096 222.563Z" fill="#EBEBEB"/>
<path d="M57.5815 230.273H51.9766V242.091H57.5815V230.273Z" fill="#F5F5F5"/>
<path d="M72.0096 246.726C72.0096 246.853 64.5975 246.956 55.4587 246.956C46.3198 246.956 38.9077 246.853 38.9077 246.726C38.9077 246.6 46.314 246.503 55.4587 246.503C64.6033 246.503 72.0096 246.606 72.0096 246.726Z" fill="#EBEBEB"/>
<path d="M24.187 182.295H18.582V194.113H24.187V182.295Z" fill="white"/>
<path d="M38.6203 198.749C38.6203 198.875 31.2083 198.972 22.0694 198.972C12.9305 198.972 5.5127 198.875 5.5127 198.749C5.5127 198.622 12.9248 198.525 22.0694 198.525C31.214 198.525 38.6203 198.622 38.6203 198.749Z" fill="#E0E0E0"/>
<path d="M24.187 206.115H18.582V217.933H24.187V206.115Z" fill="white"/>
<path d="M38.6203 222.568C38.6203 222.695 31.2083 222.792 22.0694 222.792C12.9305 222.792 5.5127 222.695 5.5127 222.568C5.5127 222.442 12.9248 222.333 22.0694 222.333C31.214 222.333 38.6203 222.442 38.6203 222.568Z" fill="#E0E0E0"/>
<path d="M24.187 229.935H18.582V241.753H24.187V229.935Z" fill="white"/>
<path d="M38.6203 246.388C38.6203 246.514 31.2083 246.612 22.0694 246.612C12.9305 246.612 5.5127 246.514 5.5127 246.388C5.5127 246.262 12.9248 246.164 22.0694 246.164C31.214 246.164 38.6203 246.262 38.6203 246.388Z" fill="#E0E0E0"/>
<path d="M385.852 92.1055C386.328 88.629 381.423 85.7949 377.734 85.4737C375.979 85.3302 374.149 85.5999 372.485 85.0204C368.877 83.7641 367.437 79.1 363.914 77.6141C361.281 76.5012 358.246 77.4936 355.699 78.7615C353.152 80.0293 350.622 81.6586 347.771 81.8422C345.292 82.0028 342.607 81.0792 340.427 82.2954C338.81 83.1961 337.96 85.0606 336.469 86.1621C334.977 87.2636 333.113 87.4644 331.306 87.5619C329.499 87.6594 327.623 87.6766 325.976 88.4339C324.33 89.1912 322.964 90.9295 323.308 92.7079L385.852 92.1055Z" fill="#F5F5F5"/>
<path d="M400.522 215.891H347.261V254.179H400.522V215.891Z" fill="#EBEBEB"/>
<path d="M361.545 215.891C361.625 215.891 361.545 223.974 361.545 223.974H357.604V215.891H361.545Z" fill="#F5F5F5"/>
<path d="M373.891 254.179H400.521V215.891H373.891V254.179Z" fill="#E0E0E0"/>
<path d="M356.014 246.686H348.883V251.729H356.014V246.686Z" fill="white"/>
<path d="M360.897 246.686H357.334V251.729H360.897V246.686Z" fill="white"/>
<path d="M395.461 190.958H360.781V215.891H395.461V190.958Z" fill="#EBEBEB"/>
<path d="M370.087 190.958C370.133 190.958 370.087 196.224 370.087 196.224H367.517V190.958H370.087Z" fill="#F5F5F5"/>
<path d="M378.125 215.891H395.462V190.958H378.125V215.891Z" fill="#E0E0E0"/>
<path d="M366.485 211.008H361.844V214.296H366.485V211.008Z" fill="white"/>
<path d="M369.662 211.008H367.339V214.296H369.662V211.008Z" fill="white"/>
<path d="M40.985 25.2707C41.2546 23.3029 38.4779 21.6794 36.3955 21.513C35.3972 21.4327 34.3646 21.5818 33.418 21.2548C31.3757 20.5435 30.5496 17.9045 28.5646 17.0612C27.073 16.4301 25.3577 16.9923 23.912 17.7209C22.4663 18.4495 21.0435 19.3617 19.4257 19.442C18.0202 19.5338 16.4941 19.0117 15.2665 19.7001C14.3485 20.2107 13.8666 21.2663 13.0233 21.8859C12.1442 22.431 11.126 22.7099 10.0918 22.6891C9.06366 22.6599 8.03945 22.8274 7.07416 23.1824C6.13905 23.607 5.35309 24.5937 5.55962 25.6034L40.985 25.2707Z" fill="#EBEBEB"/>
<path d="M395.525 65.2397C395.789 63.3178 393.081 61.7402 391.044 61.5738C390.075 61.4992 389.065 61.6426 388.142 61.3271C386.151 60.6272 385.353 58.0513 383.409 57.231C381.957 56.6228 380.282 57.1678 378.871 57.8735C377.46 58.5791 376.065 59.4798 374.494 59.5946C373.122 59.6863 371.625 59.1758 370.438 59.847C369.543 60.3461 369.078 61.373 368.252 61.9811C367.39 62.5092 366.394 62.7781 365.383 62.7556C364.381 62.7292 363.382 62.8927 362.44 63.2375C361.528 63.6505 360.777 64.6143 360.966 65.5953L395.525 65.2397Z" fill="#EBEBEB"/>
<path d="M101.973 37.4616C102.467 33.8645 97.3838 30.9043 93.5803 30.5773C91.7559 30.4339 89.8685 30.7093 88.1474 30.1126C84.4127 28.8103 82.9211 23.9856 79.2782 22.4481C76.5532 21.3007 73.4208 22.3219 70.7818 23.6529C68.1429 24.9838 65.5326 26.6533 62.5838 26.8426C60.0137 27.009 57.2313 26.0566 54.9824 27.3073C53.313 28.2424 52.4352 30.1757 50.892 31.3231C49.3488 32.4705 47.4212 32.6713 45.5452 32.7745C43.6693 32.8778 41.7359 32.895 40.0321 33.6752C38.3282 34.4554 36.9227 36.2568 37.2726 38.0984L101.973 37.4616Z" fill="#F5F5F5"/>
<path d="M400.327 254.179C400.327 254.265 312.724 254.328 204.699 254.328C96.6727 254.328 9.07031 254.265 9.07031 254.179C9.07031 254.093 96.6555 254.03 204.727 254.03C312.799 254.03 400.327 254.098 400.327 254.179Z" fill="#263238"/>
<path d="M165.556 230.158C166.165 230.301 166.739 230.565 167.244 230.934C167.749 231.304 168.173 231.772 168.493 232.31C169.129 233.389 169.508 234.6 169.6 235.849C169.853 238.253 169.027 240.915 168.017 243.101C165.665 241.81 164.575 238.907 164.076 237.398C163.33 235.012 163.427 230.244 165.556 230.158Z" fill="#08979C"/>
<path d="M171.161 246.468C170.88 245.827 170.772 245.123 170.85 244.427C170.927 243.731 171.187 243.068 171.603 242.504C172.03 241.95 172.562 241.486 173.17 241.139C173.778 240.792 174.448 240.57 175.142 240.485C175.457 240.411 175.784 240.407 176.1 240.473C176.417 240.54 176.714 240.675 176.973 240.869C177.18 241.089 177.325 241.36 177.395 241.654C177.464 241.948 177.455 242.255 177.368 242.544C177.179 243.12 176.843 243.636 176.393 244.042C174.919 245.487 173.226 246.623 171.161 246.468Z" fill="#08979C"/>
<path d="M170.215 254.207C170.185 254.045 170.171 253.879 170.175 253.714C170.175 253.358 170.146 252.905 170.129 252.36C170.032 250.861 170.177 249.356 170.559 247.903C170.968 246.445 171.761 245.123 172.854 244.076C173.186 243.766 173.554 243.496 173.95 243.273C174.056 243.209 174.168 243.154 174.283 243.106C174.357 243.072 174.397 243.055 174.403 243.061C173.878 243.38 173.386 243.75 172.934 244.168C171.893 245.224 171.135 246.527 170.731 247.954C170.354 249.391 170.196 250.876 170.261 252.36C170.261 252.934 170.261 253.393 170.261 253.714C170.262 253.88 170.246 254.045 170.215 254.207Z" fill="#263238"/>
<path d="M165.814 233.807C165.845 233.871 165.868 233.939 165.883 234.008C165.929 234.163 165.98 234.364 166.049 234.582C166.193 235.104 166.393 235.855 166.623 236.79C167.099 238.655 167.719 241.236 168.344 244.111C168.969 246.985 169.463 249.589 169.801 251.488C169.968 252.435 170.099 253.209 170.18 253.731C170.22 253.984 170.249 254.19 170.272 254.345C170.277 254.418 170.277 254.491 170.272 254.563C170.244 254.495 170.225 254.424 170.214 254.351C170.18 254.196 170.14 253.995 170.088 253.743C169.985 253.198 169.836 252.435 169.658 251.511C169.291 249.624 168.769 247.013 168.155 244.145C167.541 241.277 166.933 238.689 166.491 236.819C166.273 235.895 166.095 235.144 165.969 234.599L165.831 234.025C165.817 233.953 165.812 233.88 165.814 233.807Z" fill="#263238"/>
<path d="M168.063 248.643C167.512 247.274 166.642 246.057 165.527 245.091C164.412 244.126 163.083 243.439 161.649 243.089C160.921 242.917 160.014 242.9 159.578 243.514C159.142 244.128 159.464 244.977 159.877 245.602C160.768 246.89 162.02 247.886 163.476 248.464C164.931 249.042 166.526 249.176 168.058 248.849" fill="#08979C"/>
<path d="M162.458 245.246C162.614 245.259 162.768 245.287 162.917 245.333C163.096 245.373 163.272 245.423 163.445 245.482C163.651 245.556 163.887 245.614 164.133 245.728C164.408 245.836 164.676 245.958 164.937 246.096C165.239 246.247 165.532 246.415 165.814 246.6C166.466 247.026 167.066 247.524 167.604 248.086C168.134 248.656 168.596 249.286 168.981 249.962C169.146 250.258 169.293 250.562 169.423 250.874C169.54 251.144 169.644 251.42 169.733 251.7C169.806 251.932 169.868 252.168 169.916 252.406C169.965 252.583 169.999 252.763 170.019 252.945C170.052 253.098 170.07 253.254 170.071 253.41C170.031 253.41 169.956 252.75 169.612 251.741C169.52 251.465 169.413 251.195 169.291 250.932C169.158 250.626 169.007 250.329 168.838 250.043C168.455 249.381 167.999 248.766 167.478 248.207C166.958 247.657 166.381 247.165 165.757 246.738C165.479 246.551 165.192 246.379 164.896 246.222C164.627 246.067 164.357 245.952 164.116 245.843C163.101 245.419 162.447 245.281 162.458 245.246Z" fill="#263238"/>
<path d="M348.248 248.149C348.466 247.312 347.915 246.468 347.296 245.855C346.676 245.241 345.936 244.707 345.615 243.893C345.093 242.585 345.793 240.892 344.903 239.802C344.381 239.16 343.446 238.942 342.981 238.259C342.767 237.879 342.625 237.463 342.563 237.031C342.067 234.859 340.997 232.86 339.465 231.243C339.364 233.179 339.784 235.106 340.681 236.825C341.102 237.485 341.41 238.21 341.593 238.97C341.788 240.215 341.094 241.495 341.398 242.716C341.748 244.111 343.314 245.046 343.389 246.48C343.452 247.696 342.391 248.775 342.471 249.979C342.536 250.495 342.721 250.988 343.01 251.419C343.428 252.222 344.063 252.892 344.843 253.351C345.623 253.811 346.517 254.042 347.422 254.018L349.986 254.11L348.248 248.149Z" fill="#08979C"/>
<g opacity="0.3">
<path d="M348.247 248.149C348.465 247.312 347.914 246.468 347.295 245.854C346.675 245.241 345.935 244.707 345.614 243.892C345.092 242.584 345.792 240.892 344.902 239.802C344.38 239.159 343.445 238.941 342.98 238.259C342.766 237.879 342.624 237.463 342.562 237.031C342.066 234.859 340.996 232.86 339.464 231.242C339.363 233.178 339.783 235.106 340.68 236.825C341.101 237.484 341.409 238.209 341.592 238.97C341.787 240.215 341.093 241.494 341.397 242.716C341.747 244.11 343.313 245.045 343.388 246.48C343.451 247.696 342.39 248.774 342.47 249.979C342.535 250.495 342.72 250.988 343.009 251.419C343.427 252.222 344.062 252.892 344.842 253.351C345.622 253.811 346.516 254.042 347.421 254.018L349.985 254.11L348.247 248.149Z" fill="black"/>
</g>
<path d="M350.501 254.167C350.735 254.209 350.973 254.209 351.207 254.167C351.49 254.126 351.769 254.057 352.039 253.961C352.41 253.828 352.758 253.634 353.066 253.387C353.254 253.235 353.4 253.038 353.49 252.813C353.566 252.566 353.606 252.309 353.611 252.05C353.615 251.772 353.636 251.494 353.674 251.218C353.72 250.927 353.826 250.648 353.984 250.398C354.398 249.869 354.723 249.276 354.947 248.643C355.072 247.898 355.049 247.135 354.878 246.399C354.693 245.604 354.715 244.775 354.942 243.99C355.217 243.193 355.773 242.464 356.055 241.563C356.336 240.663 356.204 239.67 356.267 238.695C356.284 238.203 356.397 237.72 356.6 237.272C356.806 236.819 357.093 236.394 357.317 235.918C357.708 234.917 357.931 233.859 357.976 232.786C358.04 232.247 358.103 231.702 358.16 231.151C358.198 230.595 358.294 230.045 358.447 229.51C358.617 228.969 358.822 228.441 359.061 227.927C359.18 227.657 359.28 227.379 359.359 227.095C359.405 226.796 359.422 226.521 359.439 226.217C359.468 225.625 359.445 225.032 359.37 224.444C359.302 223.871 359.193 223.263 359.13 222.672V222.568V222.454L359.026 222.505C358.483 222.776 358.01 223.169 357.644 223.653C357.29 224.13 357.006 224.655 356.8 225.213C356.432 226.305 356.165 227.428 356.003 228.569C355.839 229.657 355.481 230.706 354.947 231.667C354.666 232.12 354.328 232.539 354.029 232.981C353.711 233.415 353.494 233.915 353.393 234.444C353.243 235.528 353.84 236.48 353.714 237.438C353.659 237.911 353.5 238.365 353.249 238.769C353.014 239.177 352.744 239.555 352.48 239.917C352.216 240.288 351.987 240.684 351.798 241.099C351.615 241.504 351.508 241.94 351.482 242.384C351.419 243.244 351.54 244.065 351.482 244.839C351.412 245.575 351.198 246.291 350.851 246.944C350.541 247.576 350.197 248.143 349.91 248.666C349.766 248.932 349.636 249.206 349.52 249.486C349.417 249.747 349.342 250.018 349.296 250.295C349.225 250.78 349.225 251.273 349.296 251.758C349.367 252.435 349.62 253.079 350.031 253.622C350.096 253.701 350.164 253.775 350.237 253.846C350.29 253.899 350.348 253.947 350.409 253.989L350.553 254.093C350.372 253.945 350.207 253.78 350.059 253.599C349.661 253.057 349.419 252.416 349.36 251.746C349.303 251.267 349.315 250.782 349.394 250.306C349.445 250.036 349.521 249.77 349.624 249.515C349.739 249.24 349.87 248.972 350.014 248.711C350.3 248.138 350.65 247.598 350.966 246.962C351.322 246.298 351.544 245.571 351.62 244.822C351.689 244.03 351.568 243.204 351.62 242.361C351.647 241.932 351.752 241.512 351.93 241.122C352.118 240.718 352.345 240.334 352.607 239.974C352.865 239.596 353.14 239.217 353.381 238.798C353.643 238.378 353.809 237.906 353.869 237.415C353.995 236.389 353.404 235.431 353.553 234.427C353.655 233.92 353.866 233.442 354.173 233.027C354.46 232.591 354.804 232.178 355.091 231.707C355.639 230.732 356.005 229.665 356.169 228.558C356.334 227.427 356.599 226.314 356.961 225.23C357.164 224.687 357.442 224.176 357.787 223.71C358.134 223.241 358.586 222.86 359.107 222.597L358.992 222.528V222.631C359.055 223.234 359.164 223.819 359.233 224.404C359.301 224.975 359.322 225.551 359.296 226.125C359.289 226.411 359.264 226.697 359.221 226.98C359.147 227.255 359.051 227.524 358.934 227.783C358.693 228.303 358.486 228.837 358.315 229.384C358.161 229.927 358.065 230.484 358.028 231.048C357.965 231.621 357.902 232.149 357.844 232.688C357.8 233.743 357.583 234.784 357.202 235.769C356.99 236.234 356.703 236.664 356.485 237.134C356.277 237.599 356.162 238.1 356.146 238.609C356.089 239.595 356.215 240.565 355.951 241.437C355.687 242.309 355.125 243.038 354.844 243.864C354.614 244.668 354.594 245.517 354.787 246.331C354.957 247.053 354.986 247.801 354.873 248.534C354.65 249.154 354.331 249.735 353.926 250.255C353.765 250.516 353.658 250.806 353.611 251.109C353.575 251.387 353.556 251.667 353.553 251.947C353.554 252.2 353.517 252.451 353.444 252.693C353.358 252.902 353.222 253.087 353.048 253.232C352.748 253.477 352.408 253.671 352.044 253.806C351.779 253.905 351.504 253.978 351.224 254.024C351.052 254.059 350.877 254.076 350.702 254.075L350.501 254.167Z" fill="#263238"/>
<path d="M358.574 223.985C358.572 224.012 358.572 224.039 358.574 224.066L358.517 224.295C358.465 224.496 358.408 224.8 358.31 225.184C358.213 225.569 357.977 225.988 357.777 226.521C357.542 227.114 357.339 227.719 357.168 228.334C356.973 229.022 356.801 229.78 356.595 230.589C356.441 231.459 356.165 232.303 355.774 233.096C355.568 233.509 355.327 233.933 355.143 234.392C354.958 234.864 354.832 235.357 354.77 235.861C354.635 236.903 354.443 237.937 354.197 238.959C353.686 241.058 353.193 243.061 352.751 244.879C352.309 246.698 351.879 248.321 351.535 249.71C351.191 251.098 350.921 252.182 350.732 252.968C350.64 253.341 350.571 253.639 350.519 253.852L350.468 254.087C350.465 254.114 350.465 254.14 350.468 254.167C350.468 254.167 350.468 254.139 350.496 254.087L350.565 253.863C350.623 253.645 350.703 253.353 350.806 252.98C351.007 252.199 351.3 251.098 351.661 249.738C352.022 248.379 352.436 246.726 352.906 244.919C353.376 243.112 353.853 241.099 354.369 238.999C354.615 237.971 354.806 236.931 354.943 235.884C355.003 235.393 355.123 234.912 355.298 234.449C355.482 234.002 355.711 233.583 355.924 233.159C356.312 232.356 356.586 231.502 356.738 230.623C356.916 229.808 357.082 229.051 357.266 228.368C357.45 227.686 357.656 227.078 357.84 226.55C358.023 226.022 358.253 225.592 358.345 225.196C358.436 224.8 358.482 224.507 358.522 224.301L358.574 224.054C358.574 224.014 358.574 223.985 358.574 223.985Z" fill="#263238"/>
<path d="M350.955 254.173C352.631 253.18 353.107 250.157 352.413 248.344C351.719 246.531 350.491 244.868 350.302 242.929C350.158 241.437 350.646 239.911 350.302 238.454C349.837 236.492 347.921 234.972 347.938 232.952C347.938 231.805 348.598 230.749 348.546 229.619C348.483 228.231 347.399 227.129 346.756 225.907C345.746 224.031 345.683 221.823 345.333 219.723C344.983 217.623 344.186 215.374 342.327 214.342C342.058 216.126 341.587 217.348 341.754 219.757C341.811 220.629 342.815 222.287 342.953 224.186C343.033 225.334 343.09 226.481 343.159 227.594C343.173 228.705 343.355 229.807 343.698 230.864C344.002 231.656 344.49 232.378 344.714 233.193C345.138 234.736 344.582 236.406 344.926 237.966C345.213 239.286 346.131 240.422 346.314 241.764C346.578 243.646 345.362 245.602 345.982 247.398C346.291 248.293 347.026 249.01 347.232 249.928C347.399 250.645 347.232 251.396 347.364 252.113C347.599 253.261 349.808 254.167 350.984 254.098" fill="#08979C"/>
<path d="M342.785 216.114C342.785 216.114 342.785 216.149 342.785 216.212L342.825 216.504C342.86 216.763 342.906 217.141 342.992 217.652C343.078 218.162 343.336 218.696 343.565 219.373C343.795 220.05 343.99 220.807 344.179 221.668C344.369 222.528 344.529 223.475 344.696 224.496C344.829 225.599 345.119 226.676 345.556 227.697C345.786 228.236 346.049 228.77 346.25 229.338C346.442 229.925 346.559 230.534 346.6 231.151C346.695 232.457 346.86 233.757 347.094 235.046C347.604 237.685 348.092 240.209 348.539 242.504C348.987 244.799 349.428 246.835 349.784 248.568C350.14 250.301 350.432 251.677 350.639 252.653C350.736 253.123 350.817 253.496 350.874 253.76L350.943 254.047L350.972 254.144C350.974 254.112 350.974 254.079 350.972 254.047L350.92 253.754C350.868 253.49 350.8 253.112 350.714 252.635C350.518 251.66 350.243 250.266 349.91 248.545C349.578 246.824 349.124 244.707 348.671 242.412C348.218 240.118 347.748 237.611 347.237 234.954C347.006 233.669 346.841 232.373 346.744 231.07C346.7 230.442 346.578 229.822 346.382 229.223C346.176 228.65 345.912 228.105 345.677 227.577C345.243 226.566 344.952 225.5 344.81 224.41C344.638 223.389 344.472 222.436 344.271 221.576C344.097 220.801 343.885 220.035 343.634 219.281C343.422 218.616 343.158 218.065 343.061 217.56C342.963 217.055 342.911 216.694 342.86 216.441C342.86 216.321 342.82 216.229 342.808 216.155C342.801 216.141 342.794 216.127 342.785 216.114Z" fill="#263238"/>
<path d="M302.099 178.463H47.3403V203.923H302.099V178.463Z" fill="#08979C"/>
<g opacity="0.4">
<path d="M302.101 178.463H47.3423V203.924H302.101V178.463Z" fill="black"/>
</g>
<path d="M246.904 207.136H171.705V230.715H246.904V207.136Z" fill="#455A64"/>
<path d="M119.155 196.471V227.64H144.834L155.126 212.724H342.613V196.471H119.155Z" fill="#263238"/>
<path d="M117.555 97.7736C117.527 97.2724 117.303 96.8023 116.932 96.4644C116.561 96.1265 116.072 95.9477 115.57 95.9665C105.422 96.3853 57.2433 98.594 47.3357 103.356C39.7515 107.004 31.4445 120.624 25.5871 129.797C21.3877 136.371 12.1111 150.966 10.2352 158.43C8.64605 164.74 7.68798 177.866 7.79698 184.378L10.4474 218.834H54.111L58.4825 207.452C59.8775 203.826 62.3385 200.708 65.5409 198.51C68.7434 196.311 72.5371 195.134 76.4218 195.135H119.81V137.955L117.555 97.7736Z" fill="#08979C"/>
<path d="M42.1599 107.171C36.1476 112.908 30.1124 122.66 25.586 129.797C21.6964 135.884 13.4582 148.843 10.7676 156.657C10.7159 156.801 10.6758 156.938 10.6299 157.082C11.9608 156.714 14.0089 155.963 14.6457 154.701C15.6038 152.79 16.8315 146.245 32.0113 121.536C36.6238 114.003 41.1215 109.597 42.1599 107.171Z" fill="#455A64"/>
<path d="M95.1231 104.618C83.9591 105.254 59.7552 106.912 52.0218 109.54C41.9478 112.982 30.6404 139.653 30.1069 140.823L22.4883 160.329C22.4456 160.456 22.4338 160.592 22.4538 160.725C22.4739 160.858 22.5253 160.984 22.6037 161.094C22.6821 161.203 22.7854 161.292 22.9049 161.353C23.0245 161.415 23.157 161.447 23.2915 161.447H42.9862C43.7321 161.448 44.4722 161.315 45.172 161.057L96.9704 141.747C98.1141 141.32 99.1001 140.554 99.7963 139.551C100.492 138.548 100.866 137.357 100.866 136.136V110.051C100.866 109.31 100.715 108.578 100.423 107.898C100.131 107.219 99.7024 106.606 99.1648 106.097C98.6272 105.588 97.9915 105.195 97.2965 104.941C96.6016 104.686 95.862 104.576 95.1231 104.618Z" fill="#263238"/>
<path d="M24.6855 159.531C24.6855 159.531 31.9829 143.164 34.4383 137.8C38.1443 129.699 46.8013 113.131 52.6472 111.347C58.0227 109.735 73.4779 107.773 95.2322 106.528H95.4387C96.373 106.531 97.268 106.904 97.9281 107.565C98.5882 108.226 98.9597 109.122 98.9612 110.056V136.733C98.9591 137.39 98.7571 138.032 98.3821 138.572C98.0071 139.112 97.4768 139.525 96.8615 139.756L58.5906 144.478C57.0565 144.667 55.582 145.188 54.2693 146.004C52.9567 146.821 51.8374 147.913 50.9892 149.205L44.3574 159.319C43.9681 159.463 43.5563 159.537 43.1411 159.537L24.6855 159.531Z" fill="#455A64"/>
<path d="M57.2032 144.77L44.1919 159.262L51.3917 111.146L53.1931 110.527L49.6477 146.17C49.631 146.349 49.6605 146.529 49.7334 146.694C49.8063 146.858 49.9202 147.001 50.0642 147.108C50.2081 147.216 50.3773 147.285 50.5555 147.309C50.7337 147.332 50.9149 147.309 51.0819 147.243L57.2032 144.77Z" fill="#263238"/>
<path d="M6.94129 187.722C6.89539 187.097 7.10766 186.575 7.42892 186.575L14.405 185.932C14.9787 185.875 15.5122 186.959 15.5811 188.227L15.8966 193.58C15.9482 194.44 15.6901 195.169 15.3229 195.232L8.20914 196.46C7.88787 196.517 7.57808 196.041 7.53219 195.41L6.94129 187.722Z" fill="#EBEBEB"/>
<path d="M57.2018 212.73H6.93506V232.883H57.2018V212.73Z" fill="#263238"/>
<path d="M90.7575 253.933C105.936 253.35 117.767 240.573 117.184 225.395C116.601 210.217 103.824 198.385 88.646 198.968C73.4679 199.551 61.6363 212.328 62.2193 227.507C62.8024 242.685 75.5794 254.516 90.7575 253.933Z" fill="#263238"/>
<path d="M62.2221 225.976C62.2252 226.001 62.2252 226.026 62.2221 226.051C62.1259 233.338 64.9265 240.366 70.0086 245.591C75.0908 250.815 82.0389 253.809 89.3266 253.913C96.6143 254.018 103.646 251.226 108.876 246.15C114.106 241.074 117.108 234.13 117.222 226.842C117.222 226.842 117.222 226.796 117.222 226.773L62.2221 225.976Z" fill="#263238"/>
<path d="M70.4088 226.165C70.3525 229.985 71.43 233.735 73.5051 236.941C75.5802 240.148 78.5597 242.667 82.0667 244.181C85.5737 245.694 89.4507 246.133 93.2073 245.443C96.964 244.752 100.432 242.963 103.171 240.302C105.911 237.641 107.8 234.227 108.6 230.492C109.399 226.757 109.073 222.869 107.663 219.319C106.252 215.77 103.821 212.718 100.676 210.551C97.5309 208.383 93.8138 207.197 89.9946 207.142C84.875 207.068 79.9357 209.031 76.2629 212.598C72.5901 216.166 70.4844 221.046 70.4088 226.165Z" fill="#FAFAFA"/>
<path d="M89.9945 207.142C84.8748 207.068 79.9356 209.031 76.2627 212.598C72.5899 216.166 70.4842 221.046 70.4087 226.165L109.024 226.739C109.099 221.617 107.136 216.675 103.568 213C99.999 209.324 95.1166 207.217 89.9945 207.142Z" fill="#E0E0E0"/>
<path d="M77.9583 226.274C77.9245 228.6 78.5812 230.884 79.8454 232.837C81.1095 234.789 82.9244 236.323 85.0604 237.244C87.1964 238.166 89.5576 238.433 91.8454 238.012C94.1332 237.591 96.2448 236.501 97.9132 234.88C99.5815 233.259 100.732 231.18 101.218 228.905C101.705 226.63 101.506 224.262 100.646 222.101C99.7871 219.939 98.3061 218.081 96.3906 216.761C94.4751 215.441 92.2112 214.719 89.8853 214.686C86.7671 214.641 83.7588 215.837 81.5222 218.01C79.2855 220.184 78.0036 223.156 77.9583 226.274Z" fill="#263238"/>
<path d="M36.3724 122.087H34.1293C31.6009 122.087 29.5513 124.136 29.5513 126.665V144.868C29.5513 147.396 31.6009 149.446 34.1293 149.446H36.3724C38.9008 149.446 40.9505 147.396 40.9505 144.868V126.665C40.9505 124.136 38.9008 122.087 36.3724 122.087Z" fill="#263238"/>
<path d="M24.8359 166.358H24.2622V137.427C24.2637 136.047 24.8124 134.725 25.7879 133.749C26.7634 132.774 28.086 132.225 29.4656 132.224H30.8424V132.797H29.4656C28.2382 132.799 27.0615 133.287 26.1936 134.155C25.3257 135.023 24.8374 136.2 24.8359 137.427V166.358Z" fill="#263238"/>
<path d="M28.741 166.393L27.1461 139.343C27.1237 138.881 27.1948 138.419 27.3553 137.984C27.5157 137.55 27.762 137.152 28.0797 136.815C28.3973 136.479 28.7796 136.209 29.2037 136.024C29.6279 135.838 30.0851 135.74 30.5481 135.735V136.308C30.162 136.309 29.78 136.388 29.4255 136.541C29.071 136.694 28.7516 136.918 28.4867 137.199C28.2219 137.479 28.0172 137.812 27.8854 138.174C27.7535 138.537 27.6971 138.923 27.7198 139.309L29.3147 166.364L28.741 166.393Z" fill="#263238"/>
<path d="M30.5493 163.754H22.8159V172.709H30.5493V163.754Z" fill="#263238"/>
<path d="M27.6917 146.755H24.5479V147.329H27.6917V146.755Z" fill="#263238"/>
<path d="M53.9433 105.392L54.626 105.3L56.6396 105.065L64.4418 104.164L93.5279 100.854C95.0768 100.688 96.6545 100.481 98.2895 100.338C99.1248 100.274 99.9648 100.328 100.785 100.499C101.619 100.694 102.424 100.998 103.177 101.405C104.732 102.27 105.993 103.581 106.797 105.168C107.213 105.98 107.494 106.854 107.629 107.756C107.701 108.211 107.742 108.671 107.75 109.133V110.515C107.75 117.922 107.75 125.873 107.75 134.3C107.75 151.155 107.75 169.904 107.75 189.948V190.097H77.5334C75.8085 190.041 74.0818 190.123 72.3702 190.344C68.8394 190.852 65.5083 192.294 62.7207 194.519C59.9332 196.745 57.7903 199.675 56.5134 203.005C56.2656 203.617 56.0567 204.244 55.8881 204.881C55.7016 205.512 55.5541 206.154 55.4463 206.803L55.2972 207.779L55.2283 208.266L55.1997 208.754L55.1538 209.735V210.228V210.286C55.28 210.159 54.9759 210.481 54.9989 210.446H16.6821V210.286C16.6821 201.64 16.6821 193.304 16.6821 185.342C16.6821 181.36 16.6821 177.472 16.6821 173.678V168.068C16.6821 167.144 16.6821 166.232 16.6821 165.32C16.7008 164.413 16.7659 163.507 16.8772 162.606C17.3147 159.135 18.4171 155.781 20.1243 152.727C21.7038 149.756 23.2337 146.887 24.7138 144.122L32.8487 128.879L39.4519 116.504C39.9338 115.606 40.3966 114.736 40.8402 113.894C41.0697 113.481 41.2705 113.062 41.5114 112.672C41.749 112.291 42.0075 111.923 42.2859 111.571C43.2808 110.33 44.4521 109.242 45.7625 108.341C47.5672 107.116 49.5848 106.238 51.7116 105.754C52.4418 105.578 53.1838 105.458 53.9318 105.392L53.3581 105.478C52.9852 105.536 52.4345 105.633 51.7116 105.799C49.5974 106.299 47.594 107.186 45.8026 108.415C44.5033 109.318 43.3435 110.406 42.3605 111.645C42.0827 111.992 41.8279 112.356 41.5975 112.735C41.3623 113.114 41.1615 113.539 40.932 113.957L39.5494 116.573L33.0036 128.959C30.5482 133.583 27.8404 138.683 24.9146 144.214L20.3251 152.819C18.6337 155.85 17.5448 159.179 17.1181 162.623C17.0088 163.516 16.9456 164.414 16.9288 165.314C16.9288 166.215 16.9288 167.138 16.9288 168.056V173.667C16.9288 177.457 16.9288 181.345 16.9288 185.33C16.9288 193.293 16.9288 201.629 16.9288 210.274L16.7854 210.136H54.953C54.9931 210.108 54.6776 210.412 54.8096 210.274V210.211V209.718L54.8612 208.719V208.226L54.9358 207.733L55.0849 206.74C55.1939 206.081 55.3434 205.43 55.5324 204.79C55.704 204.142 55.9167 203.506 56.1692 202.885C57.4665 199.506 59.6415 196.533 62.4701 194.274C65.2987 192.016 68.6785 190.552 72.2612 190.034C73.9731 189.816 75.6995 189.734 77.4244 189.788H107.503L107.354 189.931C107.354 169.909 107.354 151.161 107.354 134.283C107.354 125.856 107.354 117.904 107.354 110.498C107.391 109.588 107.353 108.677 107.239 107.773C107.109 106.891 106.835 106.037 106.43 105.243C105.651 103.691 104.421 102.411 102.902 101.571C102.17 101.17 101.386 100.871 100.573 100.682C99.7718 100.513 98.9511 100.457 98.1346 100.516C96.5111 100.653 94.922 100.86 93.3787 101.026L64.2984 104.245L56.4905 105.1L54.4768 105.312L53.9433 105.392Z" fill="#263238"/>
<path d="M98.5951 168.796C98.5951 168.796 98.7558 168.796 99.0426 168.728C99.4644 168.653 99.8665 168.493 100.224 168.257C100.789 167.887 101.211 167.337 101.423 166.697C101.553 166.297 101.606 165.877 101.578 165.458C101.566 164.993 101.446 164.537 101.228 164.127C100.979 163.657 100.608 163.262 100.153 162.985C99.6993 162.707 99.1789 162.557 98.6468 162.549H94.8604H86.1862C85.464 162.55 84.7674 162.817 84.2289 163.298C83.6905 163.779 83.3478 164.442 83.2662 165.159C83.176 165.841 83.3025 166.533 83.6276 167.139C83.95 167.711 84.4549 168.16 85.0618 168.412C85.6619 168.62 86.2994 168.699 86.932 168.642H88.7678H92.0666L96.8454 168.687H98.1477C98.2976 168.684 98.4475 168.696 98.5951 168.722C98.4467 168.74 98.2973 168.75 98.1477 168.751H96.8454L92.0666 168.796H88.7678H86.932C86.6108 168.796 86.301 168.796 85.9625 168.796C85.6182 168.771 85.2798 168.693 84.9585 168.567C84.295 168.292 83.7419 167.803 83.3866 167.179C83.0304 166.521 82.8899 165.769 82.985 165.027C83.0737 164.24 83.4489 163.512 84.0392 162.983C84.6295 162.454 85.3936 162.161 86.1862 162.159H94.8604H98.6468C99.4743 162.175 100.263 162.513 100.846 163.101C101.428 163.689 101.759 164.481 101.768 165.308C101.786 165.747 101.722 166.185 101.578 166.599C101.342 167.265 100.887 167.832 100.288 168.206C99.9133 168.439 99.492 168.585 99.0541 168.636C98.9083 168.708 98.7541 168.762 98.5951 168.796Z" fill="#263238"/>
<path d="M97.5443 161.591C95.9097 161.735 94.2681 161.783 92.6278 161.734C90.9857 161.783 89.3421 161.735 87.7056 161.591C89.3419 161.443 90.9856 161.393 92.6278 161.442C94.2682 161.393 95.9099 161.443 97.5443 161.591Z" fill="white"/>
<path d="M59.4919 233.05L54.9023 232.717C56.1014 216.281 57.8568 206.448 60.2721 202.656C64.9075 195.37 69.5142 194.05 74.6143 193.184C79.3645 192.375 84.1548 192.564 88.7902 192.754L89.9376 192.8C99.5067 193.173 119.551 192.84 119.769 192.84L119.844 197.429C119.643 197.429 99.4723 197.768 89.777 197.389L88.6296 197.343C84.2294 197.171 79.6857 196.982 75.406 197.716C70.8452 198.491 67.8104 199.38 64.1502 205.128C63.043 206.844 60.9662 212.804 59.4919 233.05Z" fill="#263238"/>
<path d="M348.235 45.8203H122.213V196.311H348.235V45.8203Z" fill="#08979C"/>
<path d="M345.528 193.333C345.528 192.364 345.482 137.169 345.407 49.2222L345.528 49.337L124.657 49.3714L124.806 49.2222C124.806 100.447 124.806 149.205 124.806 193.333L124.668 193.195L345.539 193.333L124.668 193.471H124.508V193.333C124.508 149.205 124.508 100.447 124.508 49.2222V49.0788H124.674L345.545 49.1075H345.665V49.228C345.573 137.169 345.528 192.369 345.528 193.333Z" fill="#263238"/>
<g opacity="0.5">
<path d="M154.259 126.55L156.393 169.594L324.02 134.725L321.054 89.8566L154.259 126.55Z" fill="black"/>
</g>
<path d="M187.678 86.7242V124.318L283.209 103.31L283.174 66.1517L187.678 86.7242Z" fill="#08979C"/>
<g opacity="0.3">
<path d="M187.677 86.7243V124.318L283.208 103.31L283.173 66.1518L187.677 86.7243Z" fill="black"/>
</g>
<path d="M294.159 86.7243L327.99 78.8017L326.653 75.1989L294.159 86.7243Z" fill="#FAFAFA"/>
<path d="M142.676 112.041L166.198 106.534L165.268 104.032L142.676 112.041Z" fill="#FAFAFA"/>
<path d="M223.206 168.716L257.037 160.788L255.706 157.191L223.206 168.716Z" fill="#FAFAFA"/>
<path d="M268.05 68.7047C268.05 68.785 249.99 73.1049 227.68 78.3484C205.369 83.5919 187.257 87.7856 187.234 87.7053C187.211 87.6249 205.288 83.3051 227.611 78.0615C249.933 72.818 268.033 68.6243 268.05 68.7047Z" fill="#FAFAFA"/>
<path d="M187.425 120.543C187.425 120.624 179.68 122.264 170.088 124.192C160.496 126.12 152.711 127.634 152.693 127.554C152.676 127.474 160.438 125.833 170.03 123.899C179.622 121.966 187.407 120.463 187.425 120.543Z" fill="#FAFAFA"/>
<path d="M187.729 117.141C187.702 117.042 187.691 116.94 187.694 116.837C187.694 116.602 187.694 116.315 187.665 115.971C187.665 115.174 187.665 114.095 187.62 112.781C187.62 110.045 187.574 106.345 187.551 102.254C187.528 98.1637 187.47 94.4577 187.442 91.7269C187.442 90.4131 187.407 89.3346 187.396 88.5372V87.6652C187.381 87.5663 187.381 87.4657 187.396 87.3669C187.422 87.4641 187.436 87.5644 187.436 87.6652C187.436 87.9004 187.47 88.1815 187.493 88.5314C187.539 89.283 187.585 90.373 187.631 91.7212C187.729 94.4118 187.803 98.135 187.832 102.248C187.861 106.362 187.832 110.085 187.832 112.776C187.832 114.095 187.797 115.174 187.786 115.971C187.786 116.315 187.786 116.602 187.757 116.837C187.756 116.939 187.747 117.041 187.729 117.141Z" fill="#FAFAFA"/>
<path d="M90.0871 117.084C90.0871 117.084 90.0183 117.153 89.8749 117.262L89.2438 117.715C88.6701 118.111 87.8842 118.662 86.886 119.344C84.8838 120.698 82.0956 122.546 78.9862 124.536C75.8768 126.527 73.0371 128.288 70.9546 129.545C69.9219 130.17 69.0786 130.692 68.4935 131.013L67.8165 131.392C67.7394 131.442 67.6566 131.482 67.5698 131.512C67.5698 131.512 67.6387 131.443 67.7821 131.346L68.4304 130.91L70.8456 129.367L78.8141 124.284L86.754 119.166L89.1692 117.623L89.8347 117.21C89.9141 117.159 89.9987 117.117 90.0871 117.084Z" fill="#FAFAFA"/>
<path d="M80.282 119.677C80.282 119.677 80.2131 119.746 80.0697 119.855L79.4386 120.308C78.865 120.698 78.079 121.255 77.0751 121.932C75.0729 123.291 72.2847 125.133 69.1811 127.095C66.0774 129.057 63.2319 130.853 61.1494 132.109C60.1168 132.734 59.2735 133.256 58.6883 133.572L58.0113 133.956C57.9355 134.007 57.8523 134.046 57.7646 134.071C57.829 134.008 57.9002 133.952 57.9769 133.905L58.6252 133.474L61.0347 131.925L69.009 126.848L76.9488 121.731L79.3641 120.182L80.0238 119.775C80.1052 119.731 80.192 119.698 80.282 119.677Z" fill="#FAFAFA"/>
<path d="M31.9827 136.377C31.8948 136.22 31.8346 136.05 31.8049 135.872C31.7131 135.545 31.5869 135.063 31.4434 134.467C31.0663 132.908 30.8737 131.309 30.8698 129.705C30.8616 128.085 31.235 126.485 31.9598 125.035C32.1865 124.602 32.4596 124.194 32.7744 123.819C32.8806 123.676 33.0083 123.55 33.153 123.446C32.7868 123.99 32.4498 124.553 32.1434 125.133C31.4896 126.574 31.1549 128.14 31.1623 129.722C31.1797 131.307 31.3507 132.886 31.6729 134.438C31.8164 135.077 31.9199 135.725 31.9827 136.377Z" fill="#FAFAFA"/>
<path d="M8.62347 177.052C8.60272 176.848 8.60272 176.642 8.62347 176.438C8.62347 176.025 8.62347 175.428 8.65789 174.717C8.70379 173.243 8.81279 171.206 8.99063 168.98C9.16848 166.754 9.38074 164.712 9.56432 163.243C9.65611 162.509 9.73643 161.918 9.79953 161.522C9.82113 161.31 9.86536 161.1 9.93148 160.897C9.96031 161.11 9.96031 161.326 9.93148 161.539L9.78232 163.26C9.65611 164.798 9.484 166.789 9.29469 168.997C9.10537 171.206 8.99063 173.191 8.88163 174.734C8.83 175.423 8.7841 176.002 8.74968 176.455C8.73222 176.659 8.68983 176.859 8.62347 177.052Z" fill="#FAFAFA"/>
<path d="M71.4936 188.187C71.4936 188.25 70.3864 188.405 68.6711 188.962C67.667 189.288 66.6874 189.684 65.7395 190.149C63.417 191.303 61.3158 192.856 59.5322 194.739C58.8039 195.502 58.131 196.317 57.5186 197.177C56.4802 198.651 55.9926 199.667 55.9409 199.638C56.0262 199.388 56.1337 199.146 56.2622 198.915C56.3905 198.635 56.5362 198.363 56.6982 198.1C56.8818 197.791 57.0826 197.429 57.3465 197.056C57.9404 196.169 58.6042 195.331 59.3314 194.549C60.2328 193.594 61.2135 192.717 62.263 191.928C63.3221 191.159 64.4471 190.485 65.6248 189.914C66.5868 189.452 67.5844 189.068 68.608 188.767C69.0383 188.623 69.4456 188.543 69.7955 188.457C70.0964 188.384 70.4009 188.326 70.7077 188.285C70.966 188.227 71.2291 188.194 71.4936 188.187Z" fill="#FAFAFA"/>
<path d="M127.991 153.553C127.984 153.471 127.984 153.389 127.991 153.307C127.991 153.131 127.991 152.89 127.991 152.584C127.991 151.93 127.991 150.995 127.951 149.801C127.917 147.369 127.871 143.875 127.808 139.567C127.653 130.91 127.44 118.983 127.205 105.805C126.97 92.6275 126.769 80.6775 126.689 72.0378C126.649 67.7179 126.637 64.2184 126.643 61.8031C126.643 60.6041 126.643 59.669 126.643 59.0207V58.2979C126.643 58.1315 126.643 58.0512 126.643 58.0512C126.651 58.1333 126.651 58.2158 126.643 58.2979C126.643 58.47 126.643 58.711 126.643 59.0207C126.643 59.669 126.643 60.6041 126.683 61.8031C126.718 64.2356 126.763 67.7236 126.827 72.032C126.981 80.689 127.194 92.616 127.429 105.799C127.664 118.983 127.871 130.921 127.945 139.561C127.985 143.887 128.003 147.38 127.997 149.796C127.997 150.995 127.997 151.93 127.997 152.584C127.997 152.888 127.997 153.129 127.997 153.307C128 153.389 127.998 153.471 127.991 153.553Z" fill="#FAFAFA"/>
<path d="M293.975 253.901C309.153 253.294 320.964 240.499 320.357 225.321C319.75 210.144 306.955 198.333 291.778 198.94C276.6 199.547 264.789 212.342 265.396 227.519C266.003 242.696 278.798 254.508 293.975 253.901Z" fill="#263238"/>
<path d="M265.366 225.976C265.366 225.976 265.366 226.028 265.366 226.051C265.261 233.343 268.057 240.379 273.14 245.61C278.222 250.841 285.175 253.838 292.467 253.943C299.76 254.048 306.796 251.252 312.026 246.17C317.257 241.087 320.255 234.135 320.36 226.842V226.773L265.366 225.976Z" fill="#263238"/>
<path d="M273.553 226.165C273.498 229.983 274.576 233.731 276.651 236.936C278.726 240.141 281.704 242.659 285.21 244.171C288.716 245.683 292.591 246.121 296.346 245.431C300.101 244.741 303.567 242.952 306.306 240.292C309.044 237.632 310.933 234.22 311.732 230.486C312.532 226.753 312.206 222.867 310.797 219.318C309.387 215.77 306.957 212.719 303.814 210.552C300.671 208.385 296.956 207.198 293.139 207.142C288.019 207.068 283.08 209.031 279.407 212.598C275.734 216.166 273.628 221.046 273.553 226.165Z" fill="#FAFAFA"/>
<path d="M293.139 207.142C290.603 207.105 288.086 207.567 285.729 208.503C283.373 209.439 281.224 210.83 279.405 212.597C277.586 214.363 276.133 216.471 275.129 218.799C274.125 221.127 273.589 223.63 273.553 226.165L312.162 226.739C312.201 224.203 311.739 221.684 310.804 219.326C309.869 216.969 308.478 214.818 306.711 212.998C304.945 211.178 302.837 209.724 300.508 208.719C298.179 207.715 295.675 207.178 293.139 207.142Z" fill="#E0E0E0"/>
<path d="M281.126 226.274C281.092 228.6 281.749 230.884 283.013 232.837C284.277 234.789 286.092 236.323 288.228 237.244C290.364 238.166 292.726 238.433 295.013 238.012C297.301 237.591 299.413 236.501 301.081 234.88C302.749 233.259 303.9 231.18 304.386 228.905C304.873 226.63 304.674 224.262 303.814 222.101C302.955 219.939 301.474 218.081 299.559 216.761C297.643 215.441 295.379 214.719 293.053 214.686C289.935 214.641 286.927 215.837 284.69 218.01C282.454 220.184 281.172 223.156 281.126 226.274Z" fill="#263238"/>
<path d="M256.708 233.979C256.708 233.979 252.52 194.968 292.943 194.968C330.232 194.968 329.406 228.517 329.051 233.709H323.205C323.205 233.709 326.182 200.642 292.943 200.642C259.703 200.642 262.594 234.381 262.594 234.381C262.594 234.381 260.139 234.26 256.708 233.979Z" fill="#455A64"/>
<path d="M278.361 199.007C278.261 199.058 278.155 199.097 278.045 199.122C277.833 199.196 277.517 199.271 277.127 199.409C276.006 199.765 274.908 200.193 273.84 200.688C270.306 202.309 267.176 204.693 264.674 207.669C262.172 210.645 260.361 214.139 259.372 217.899C259.069 219.03 258.837 220.18 258.677 221.341C258.614 221.754 258.591 222.075 258.557 222.293C258.547 222.405 258.528 222.517 258.5 222.626C258.486 222.515 258.486 222.404 258.5 222.293C258.5 222.069 258.5 221.719 258.568 221.329C258.682 220.149 258.885 218.979 259.177 217.83C260.117 214.012 261.921 210.462 264.449 207.451C266.977 204.441 270.162 202.05 273.76 200.464C274.842 199.981 275.958 199.579 277.099 199.259C277.5 199.145 277.821 199.082 278.034 199.03C278.142 199.01 278.251 199.002 278.361 199.007Z" fill="#FAFAFA"/>
<path d="M377.648 238.706L382.536 246.061L384.733 252.991C384.77 253.11 384.831 253.22 384.912 253.315C384.993 253.409 385.092 253.485 385.205 253.539C385.317 253.593 385.439 253.623 385.563 253.628C385.687 253.632 385.811 253.611 385.927 253.565C386.067 253.518 386.192 253.436 386.292 253.328C386.393 253.22 386.464 253.088 386.5 252.945C386.948 251.132 388.56 244.455 388.176 243.933C387.791 243.411 383.529 235.838 383.529 235.838L377.648 238.706Z" fill="#455A64"/>
<g opacity="0.6">
<path d="M385.926 253.559L387.83 243.428L388.031 243.743C388.206 244.015 388.277 244.341 388.232 244.661C388.112 245.516 387.721 247.874 386.511 252.922C386.476 253.068 386.406 253.202 386.305 253.314C386.205 253.425 386.079 253.509 385.937 253.559H385.926Z" fill="white"/>
</g>
<g opacity="0.6">
<path d="M384.772 241.988C384.728 242.113 384.73 242.25 384.776 242.374C384.822 242.499 384.91 242.603 385.024 242.67C385.148 242.724 385.288 242.729 385.415 242.683C385.542 242.637 385.646 242.544 385.707 242.424C385.759 242.291 385.76 242.143 385.709 242.009C385.658 241.875 385.559 241.765 385.432 241.701C385.297 241.657 385.15 241.668 385.024 241.731C384.897 241.795 384.8 241.905 384.755 242.039" fill="white"/>
</g>
<path d="M385.566 249.222C385.24 249.099 384.893 249.043 384.545 249.056C384.202 249.12 383.875 249.248 383.581 249.434C383.581 249.434 383.621 249.302 383.782 249.165C383.996 248.994 384.255 248.888 384.528 248.861C384.8 248.828 385.076 248.878 385.319 249.004C385.503 249.101 385.583 249.205 385.566 249.222Z" fill="#263238"/>
<path d="M385.667 250.559C385.376 250.57 385.087 250.603 384.801 250.656C384.53 250.759 384.267 250.881 384.015 251.023C383.969 250.995 384.227 250.61 384.749 250.45C384.9 250.392 385.062 250.372 385.222 250.391C385.381 250.41 385.534 250.468 385.667 250.559Z" fill="#263238"/>
<path d="M385.749 247.312C385.298 247.298 384.848 247.319 384.401 247.375C383.967 247.488 383.543 247.636 383.133 247.816C383.454 247.464 383.892 247.24 384.366 247.185C384.828 247.065 385.317 247.11 385.749 247.312Z" fill="#263238"/>
<path d="M384.447 244.954C384.447 245.011 383.93 245.097 383.385 245.418C382.84 245.74 382.49 246.135 382.444 246.101C382.619 245.729 382.917 245.429 383.288 245.252C383.626 245.017 384.037 244.911 384.447 244.954Z" fill="#263238"/>
<path d="M383.063 242.757C382.662 242.856 382.275 243.011 381.916 243.215C381.602 243.469 381.322 243.762 381.084 244.088C381.084 244.088 381.084 243.938 381.193 243.726C381.343 243.458 381.553 243.228 381.807 243.055C382.061 242.882 382.351 242.77 382.656 242.728C382.92 242.705 383.063 242.734 383.063 242.757Z" fill="#263238"/>
<path d="M381.692 242.791C381.614 242.711 381.552 242.618 381.508 242.515C381.366 242.241 381.282 241.94 381.262 241.632C381.227 241.41 381.266 241.182 381.371 240.984C381.412 240.921 381.472 240.873 381.542 240.845C381.611 240.817 381.688 240.812 381.761 240.829C381.9 240.874 382.018 240.968 382.094 241.093C382.236 241.355 382.282 241.658 382.224 241.95C382.167 242.242 382.009 242.505 381.778 242.693C381.546 242.874 381.266 242.982 380.973 243.003C380.68 243.025 380.387 242.959 380.132 242.814C380.067 242.779 380.012 242.729 379.969 242.67C379.926 242.61 379.898 242.542 379.885 242.47C379.877 242.395 379.893 242.319 379.931 242.254C379.969 242.188 380.028 242.137 380.097 242.108C380.306 242.032 380.532 242.012 380.751 242.051C381.057 242.085 381.354 242.172 381.629 242.309C381.731 242.352 381.825 242.415 381.904 242.493C381.538 242.338 381.152 242.235 380.757 242.188C380.563 242.162 380.366 242.184 380.183 242.252C380.145 242.266 380.112 242.294 380.09 242.329C380.068 242.364 380.059 242.405 380.063 242.447C380.076 242.493 380.099 242.536 380.129 242.574C380.16 242.611 380.198 242.642 380.241 242.665C380.465 242.783 380.719 242.835 380.973 242.813C381.226 242.792 381.467 242.698 381.669 242.544C381.858 242.38 381.988 242.16 382.04 241.915C382.091 241.671 382.062 241.416 381.956 241.19C381.907 241.1 381.828 241.031 381.732 240.995C381.692 240.984 381.65 240.986 381.61 241.001C381.571 241.015 381.538 241.041 381.514 241.076C381.417 241.25 381.381 241.452 381.411 241.649C381.443 242.042 381.537 242.428 381.692 242.791Z" fill="#263238"/>
<path d="M373.002 242.911L372.428 250.295C372.428 250.295 379.754 252.802 379.783 254.179L365.44 254.144L365.842 242.607L373.002 242.911Z" fill="#455A64"/>
<g opacity="0.6">
<path d="M368.027 249.497C367.887 249.532 367.765 249.617 367.686 249.737C367.606 249.858 367.574 250.003 367.597 250.146C367.63 250.286 367.714 250.408 367.833 250.489C367.952 250.57 368.097 250.603 368.24 250.582C368.388 250.542 368.516 250.45 368.599 250.322C368.683 250.193 368.716 250.039 368.693 249.887C368.648 249.742 368.547 249.621 368.413 249.55C368.278 249.479 368.121 249.464 367.976 249.509" fill="white"/>
</g>
<g opacity="0.6">
<path d="M365.458 254.144L365.498 252.997L379.364 253.513C379.51 253.591 379.635 253.703 379.727 253.84C379.819 253.977 379.875 254.135 379.892 254.299L365.458 254.144Z" fill="white"/>
</g>
<path d="M372.674 250.232C372.674 250.301 372.318 250.318 371.962 250.53C371.607 250.742 371.389 251.029 371.354 251C371.32 250.972 371.412 250.564 371.842 250.318C372.272 250.071 372.691 250.169 372.674 250.232Z" fill="#263238"/>
<path d="M374.155 250.914C374.155 250.983 373.862 251.087 373.61 251.373C373.357 251.66 373.283 251.947 373.208 251.947C373.133 251.947 373.11 251.545 373.432 251.196C373.753 250.846 374.155 250.846 374.155 250.914Z" fill="#263238"/>
<path d="M374.941 252.739C374.878 252.739 374.791 252.394 374.987 252.016C375.182 251.637 375.514 251.5 375.56 251.563C375.606 251.626 375.377 251.821 375.222 252.136C375.067 252.452 375.009 252.739 374.941 252.739Z" fill="#263238"/>
<path d="M372.616 248.534C372.582 248.597 372.266 248.488 371.871 248.499C371.475 248.511 371.159 248.62 371.125 248.562C371.09 248.505 371.394 248.258 371.865 248.252C372.335 248.247 372.651 248.482 372.616 248.534Z" fill="#263238"/>
<g opacity="0.3">
<path d="M372.886 244.374L372.789 245.688L365.738 245.344L365.778 244.156L372.886 244.374Z" fill="black"/>
</g>
<path d="M372.703 247.042C372.465 247.098 372.218 247.088 371.986 247.013C371.728 246.954 371.477 246.866 371.24 246.749C371.1 246.682 370.966 246.603 370.838 246.514C370.758 246.467 370.686 246.407 370.626 246.336C370.585 246.283 370.563 246.217 370.563 246.15C370.563 246.083 370.585 246.017 370.626 245.963C370.664 245.916 370.712 245.878 370.766 245.852C370.821 245.826 370.881 245.813 370.941 245.814C371.031 245.819 371.12 245.834 371.205 245.86C371.357 245.905 371.505 245.963 371.647 246.032C371.886 246.153 372.105 246.309 372.295 246.497C372.617 246.818 372.72 247.071 372.691 247.071C372.662 247.071 372.508 246.87 372.181 246.6C371.987 246.447 371.775 246.318 371.55 246.216C371.419 246.154 371.282 246.106 371.142 246.072C370.993 246.027 370.867 246.021 370.821 246.072C370.775 246.124 370.821 246.107 370.821 246.153C370.863 246.205 370.913 246.25 370.97 246.285C371.09 246.368 371.214 246.445 371.343 246.514C371.561 246.634 371.79 246.734 372.026 246.813C372.256 246.874 372.482 246.951 372.703 247.042Z" fill="#263238"/>
<path d="M372.605 247.14C372.478 246.929 372.422 246.684 372.444 246.44C372.444 246.014 372.557 245.596 372.771 245.229C372.812 245.133 372.877 245.05 372.961 244.988C373.045 244.926 373.144 244.889 373.248 244.879C373.311 244.885 373.371 244.908 373.423 244.945C373.474 244.983 373.515 245.033 373.54 245.091C373.57 245.179 373.591 245.269 373.603 245.361C373.628 245.577 373.609 245.796 373.548 246.005C373.486 246.214 373.385 246.408 373.248 246.577C372.949 246.933 372.674 247.008 372.674 246.985C372.674 246.962 372.903 246.824 373.133 246.474C373.262 246.272 373.347 246.045 373.385 245.809C373.405 245.67 373.405 245.529 373.385 245.39C373.385 245.235 373.322 245.114 373.259 245.126C373.196 245.137 373.064 245.229 373.001 245.35C372.925 245.472 372.859 245.6 372.806 245.734C372.717 245.962 372.661 246.202 372.639 246.445C372.582 246.864 372.645 247.128 372.605 247.14Z" fill="#263238"/>
<path d="M378.244 182.175C378.244 182.175 380.877 187.573 381.566 191.423C381.761 192.513 374.027 247.851 374.027 247.851L364.883 247.507L369.168 196.012L367.642 185.686L378.244 182.175Z" fill="#263238"/>
<path d="M356.03 185.519C355.967 189.257 356.159 192.995 356.604 196.706C357.281 202.133 358.83 208.312 359.335 211.766C360.448 219.407 362.639 220.853 362.639 220.853L380.183 243.301L387.067 237.111L371.577 212.368C371.577 212.368 367.458 184.911 367.602 185.651C367.745 186.391 356.03 185.519 356.03 185.519Z" fill="#263238"/>
<path d="M363.008 221.186C363.057 221.268 363.113 221.347 363.174 221.421L363.673 222.063L365.515 224.439C367.07 226.464 369.186 229.24 371.533 232.31C373.879 235.379 376.013 238.167 377.597 240.152C378.383 241.144 379.031 241.942 379.49 242.487L380.018 243.106C380.077 243.182 380.142 243.253 380.213 243.319C380.166 243.235 380.11 243.156 380.046 243.083L379.547 242.435L377.706 240.066L371.688 232.189C369.347 229.108 367.207 226.332 365.624 224.352C364.838 223.354 364.19 222.563 363.736 222.018L363.203 221.392C363.145 221.317 363.08 221.248 363.008 221.186Z" fill="#455A64"/>
<path d="M361.051 189.725C361.041 190.033 360.957 190.334 360.805 190.602C360.19 191.957 359.064 193.014 357.672 193.54C357.393 193.666 357.09 193.731 356.783 193.729C357.705 193.339 358.562 192.811 359.325 192.163C360.023 191.444 360.605 190.622 361.051 189.725Z" fill="#455A64"/>
<path d="M379.983 186.592C379.564 186.783 379.098 186.849 378.642 186.782C378.186 186.715 377.759 186.518 377.413 186.214C377.453 186.139 377.987 186.386 378.687 186.483C379.387 186.581 379.966 186.512 379.983 186.592Z" fill="#455A64"/>
<path d="M370.109 194.222C370.138 194.343 370.159 194.466 370.172 194.589C370.207 194.853 370.247 195.203 370.304 195.645C370.408 196.592 370.557 197.94 370.746 199.581C371.102 202.954 371.589 207.612 372.152 212.97V212.907L374.693 216.969L383.522 231.179C384.629 232.987 385.53 234.455 386.167 235.505L386.855 236.675C386.944 236.809 387.019 236.951 387.079 237.1C386.978 236.975 386.886 236.842 386.804 236.704L386.046 235.557L383.321 231.283C381.027 227.64 377.889 222.643 374.418 217.124L371.882 213.057V213.022C371.366 207.681 370.907 203 370.58 199.621L370.224 195.674C370.19 195.232 370.161 194.882 370.144 194.612C370.116 194.484 370.105 194.353 370.109 194.222Z" fill="#455A64"/>
<path d="M367.443 145.998L372.916 147.753L373.329 159.359C373.329 159.359 376.289 172.996 376.931 174.717C377.685 176.779 378.244 178.907 378.601 181.073C378.601 181.073 377.545 188.772 369.852 189.679C362.159 190.585 354.999 186.168 354.999 186.168C354.999 186.168 352.435 174.694 350.083 164.402C347.845 154.609 349.664 148.769 349.664 148.769L358.091 145.74L367.443 145.998Z" fill="#455A64"/>
<path d="M371.507 152.458L366.479 153.067L366.635 154.36L371.664 153.751L371.507 152.458Z" fill="#FAFAFA"/>
<path d="M372.719 138.574C372.671 138.292 372.519 138.037 372.293 137.861C372.067 137.685 371.783 137.599 371.497 137.622C371.625 137.526 371.727 137.398 371.793 137.252C371.859 137.106 371.887 136.946 371.875 136.786C371.863 136.626 371.811 136.472 371.724 136.337C371.637 136.203 371.518 136.092 371.377 136.016C371.645 135.607 371.752 135.113 371.677 134.629C371.602 134.146 371.349 133.708 370.969 133.4L365.192 141.368C365.637 141.721 366.148 141.98 366.695 142.13C367.242 142.28 367.814 142.318 368.376 142.24C369.504 142.075 370.586 141.685 371.56 141.093C371.829 140.978 372.051 140.776 372.191 140.519C372.3 140.25 372.146 139.86 371.847 139.854C372.126 139.788 372.37 139.62 372.532 139.383C372.693 139.147 372.76 138.858 372.719 138.574Z" fill="#263238"/>
<path d="M358.372 134.22C358.264 134.194 358.151 134.201 358.047 134.241C357.944 134.281 357.855 134.352 357.793 134.443C357.731 134.535 357.698 134.643 357.699 134.754C357.699 134.865 357.734 134.973 357.798 135.063C357.626 135.04 357.45 135.064 357.29 135.132C357.131 135.201 356.992 135.311 356.89 135.451C356.788 135.592 356.725 135.757 356.709 135.93C356.693 136.104 356.725 136.278 356.8 136.434C356.393 136.412 355.99 136.522 355.652 136.75C355.481 136.866 355.347 137.029 355.266 137.219C355.185 137.41 355.16 137.619 355.193 137.823C355.241 138.019 355.364 138.189 355.535 138.297C355.707 138.404 355.914 138.44 356.111 138.397C356.01 138.573 355.962 138.775 355.972 138.979C355.982 139.182 356.051 139.378 356.169 139.544C356.231 139.621 356.309 139.683 356.398 139.727C356.487 139.771 356.585 139.795 356.684 139.798C356.783 139.801 356.882 139.782 356.973 139.743C357.064 139.704 357.146 139.646 357.213 139.573C357.103 139.721 357.046 139.903 357.051 140.088C357.056 140.272 357.124 140.45 357.242 140.592C357.36 140.734 357.523 140.833 357.704 140.872C357.885 140.91 358.073 140.887 358.24 140.806C358.194 140.99 358.208 141.184 358.28 141.36C358.351 141.535 358.476 141.684 358.637 141.785C358.798 141.885 358.987 141.932 359.176 141.919C359.365 141.906 359.545 141.834 359.691 141.712L358.372 134.22Z" fill="#263238"/>
<path d="M358.727 132.694L358.474 146.801C358.456 147.913 358.86 148.991 359.605 149.816C360.351 150.641 361.382 151.153 362.49 151.247C363.088 151.3 363.69 151.23 364.26 151.04C364.829 150.851 365.354 150.547 365.801 150.147C366.248 149.747 366.609 149.259 366.861 148.715C367.112 148.17 367.249 147.579 367.263 146.979C367.263 145.637 367.309 144.535 367.309 144.535C367.309 144.535 370.751 144.306 371.09 140.921C371.29 138.959 371.342 134.484 371.354 131.048C371.358 129.928 370.942 128.849 370.187 128.022C369.433 127.195 368.395 126.682 367.28 126.584L365.232 126.406C364.389 126.38 363.55 126.524 362.763 126.828C361.976 127.132 361.258 127.59 360.652 128.176C360.045 128.763 359.562 129.464 359.232 130.24C358.901 131.016 358.729 131.851 358.727 132.694Z" fill="#FFBE9D"/>
<path d="M367.299 144.535C365.729 144.386 364.235 143.789 362.996 142.814C362.996 142.814 363.868 145.378 367.282 145.373L367.299 144.535Z" fill="#EB996E"/>
<path d="M370.396 134.496C370.333 134.553 369.989 134.249 369.467 134.203C368.945 134.157 368.543 134.387 368.491 134.318C368.44 134.249 368.537 134.174 368.715 134.071C368.953 133.933 369.227 133.873 369.501 133.899C369.773 133.923 370.03 134.034 370.235 134.214C370.385 134.346 370.43 134.467 370.396 134.496Z" fill="#263238"/>
<path d="M364.884 134.719C364.873 134.846 364.814 134.963 364.719 135.046C364.624 135.13 364.5 135.173 364.373 135.167C364.311 135.167 364.25 135.154 364.193 135.13C364.135 135.106 364.084 135.071 364.04 135.027C363.997 134.982 363.963 134.93 363.94 134.872C363.918 134.814 363.907 134.753 363.908 134.691C363.919 134.564 363.978 134.447 364.073 134.363C364.168 134.28 364.292 134.237 364.419 134.243C364.481 134.243 364.542 134.255 364.599 134.279C364.657 134.304 364.708 134.339 364.752 134.383C364.795 134.428 364.829 134.48 364.852 134.538C364.874 134.596 364.885 134.657 364.884 134.719Z" fill="#263238"/>
<path d="M369.932 135.178C369.921 135.305 369.862 135.422 369.767 135.505C369.672 135.589 369.548 135.632 369.421 135.626C369.359 135.624 369.298 135.611 369.242 135.586C369.185 135.561 369.134 135.525 369.092 135.48C369.049 135.435 369.016 135.382 368.993 135.325C368.971 135.267 368.961 135.206 368.962 135.144C368.971 135.017 369.03 134.899 369.125 134.815C369.221 134.731 369.346 134.688 369.473 134.696C369.535 134.696 369.597 134.709 369.654 134.733C369.711 134.758 369.763 134.794 369.806 134.839C369.849 134.884 369.882 134.937 369.903 134.996C369.925 135.054 369.935 135.116 369.932 135.178Z" fill="#263238"/>
<path d="M365.325 134.048C365.261 134.105 364.917 133.801 364.395 133.755C363.873 133.71 363.466 133.939 363.414 133.87C363.363 133.801 363.46 133.727 363.638 133.623C363.875 133.486 364.15 133.426 364.423 133.451C364.696 133.475 364.955 133.584 365.164 133.761C365.313 133.899 365.359 134.019 365.325 134.048Z" fill="#263238"/>
<path d="M366.874 138.081C367.162 138.019 367.457 137.992 367.752 138.001C367.889 138.001 368.016 138.001 368.044 137.897C368.07 137.761 368.052 137.621 367.993 137.496C367.895 137.157 367.792 136.813 367.689 136.446C367.398 135.555 367.181 134.642 367.04 133.715C367.399 134.58 367.689 135.472 367.907 136.383C368.004 136.756 368.102 137.106 368.194 137.438C368.254 137.609 368.254 137.796 368.194 137.966C368.17 138.011 368.137 138.051 368.096 138.082C368.055 138.112 368.008 138.134 367.958 138.144C367.882 138.152 367.805 138.152 367.729 138.144C367.442 138.159 367.155 138.138 366.874 138.081Z" fill="#263238"/>
<path d="M365.307 138.305C365.393 138.305 365.347 138.879 365.795 139.32C366.242 139.762 366.85 139.756 366.85 139.831C366.85 139.905 366.701 139.934 366.449 139.917C366.116 139.891 365.804 139.749 365.565 139.515C365.336 139.294 365.202 138.991 365.192 138.672C365.192 138.431 365.273 138.299 365.307 138.305Z" fill="#263238"/>
<path d="M365.611 132.361C365.542 132.499 365.037 132.361 364.412 132.407C363.787 132.453 363.265 132.551 363.213 132.407C363.161 132.264 363.282 132.218 363.494 132.097C363.774 131.95 364.085 131.872 364.401 131.868C364.717 131.859 365.031 131.924 365.319 132.057C365.531 132.178 365.634 132.298 365.611 132.361Z" fill="#263238"/>
<path d="M370.46 132.992C370.357 133.107 370.007 132.952 369.576 132.906C369.146 132.861 368.773 132.906 368.699 132.786C368.624 132.665 368.733 132.608 368.905 132.511C369.131 132.395 369.387 132.349 369.639 132.379C369.891 132.409 370.129 132.512 370.322 132.677C370.466 132.838 370.506 132.941 370.46 132.992Z" fill="#263238"/>
<path d="M359.646 135.339C359.588 135.31 357.351 134.444 357.242 136.773C357.133 139.102 359.474 138.752 359.485 138.683C359.497 138.615 359.646 135.339 359.646 135.339Z" fill="#FFBE9D"/>
<path d="M358.825 137.76C358.825 137.76 358.779 137.788 358.71 137.817C358.612 137.854 358.504 137.854 358.406 137.817C358.261 137.714 358.147 137.573 358.075 137.411C358.002 137.249 357.974 137.07 357.993 136.894C358 136.694 358.049 136.499 358.136 136.32C358.165 136.249 358.209 136.186 358.266 136.136C358.323 136.085 358.39 136.048 358.463 136.027C358.51 136.017 358.559 136.025 358.601 136.048C358.644 136.071 358.676 136.108 358.693 136.153C358.693 136.222 358.693 136.268 358.693 136.268C358.693 136.268 358.744 136.234 358.733 136.136C358.723 136.078 358.692 136.025 358.647 135.987C358.587 135.935 358.508 135.908 358.429 135.912C358.333 135.927 358.241 135.965 358.164 136.025C358.087 136.084 358.026 136.162 357.987 136.251C357.875 136.447 357.814 136.668 357.809 136.894C357.786 137.1 357.825 137.308 357.919 137.493C358.014 137.678 358.162 137.83 358.343 137.932C358.404 137.952 358.469 137.959 358.534 137.952C358.598 137.945 358.66 137.925 358.716 137.892C358.813 137.817 358.83 137.766 358.825 137.76Z" fill="#EB996E"/>
<path d="M358.361 135.132C358.583 135.137 358.799 135.201 358.988 135.32C359.176 135.438 359.328 135.605 359.428 135.804C359.548 136.148 359.548 136.526 359.669 136.871C359.789 137.215 360.105 137.548 360.466 137.49C360.59 137.464 360.705 137.406 360.798 137.322C360.892 137.237 360.962 137.129 361 137.008C361.071 136.765 361.095 136.509 361.069 136.257C361.028 135.161 360.896 134.065 360.948 132.975C360.96 131.871 361.295 130.794 361.912 129.877C362.229 129.424 362.664 129.065 363.169 128.839C363.674 128.613 364.231 128.527 364.78 128.592C365.497 128.713 366.123 129.166 366.828 129.315C367.25 129.408 367.687 129.405 368.107 129.306C368.528 129.206 368.92 129.013 369.255 128.741C369.341 128.673 369.726 128.466 369.726 128.466C369.735 128.207 369.672 127.95 369.542 127.726C368.24 126.286 365.71 125.689 363.805 126.005C362.83 126.155 361.9 126.515 361.079 127.061C360.258 127.607 359.565 128.325 359.049 129.166C358.085 130.858 358.108 133.325 358.395 135.144" fill="#263238"/>
<path d="M371.767 130.468C371.562 130.795 371.274 131.063 370.933 131.244C370.592 131.425 370.209 131.514 369.823 131.501C369.05 131.465 368.291 131.284 367.585 130.967C366.467 130.583 365.314 130.308 364.143 130.147C364.028 130.147 363.891 130.147 363.839 130.026C363.787 129.906 363.914 129.745 364.04 129.659C365.124 128.959 367.608 128.69 368.899 128.747C369.546 128.761 370.179 128.94 370.737 129.267C371.296 129.595 371.761 130.059 372.089 130.617" fill="#263238"/>
<path d="M371.43 130.543C370.758 129.696 369.782 129.144 368.71 129.005C366.653 128.832 364.587 129.23 362.741 130.156C360.895 131.081 359.34 132.497 358.246 134.249C358.039 133.26 357.935 132.253 357.937 131.243C357.994 130.548 358.774 126.475 363.1 125.557C363.117 125.546 369.703 123.658 371.43 130.543Z" fill="#455A64"/>
<path d="M358.699 133.371C360.225 131.477 362.146 129.938 364.327 128.862C366.887 127.695 369.586 126.864 372.359 126.389C373.071 126.221 373.81 126.207 374.527 126.349C374.884 126.427 375.212 126.604 375.472 126.86C375.733 127.116 375.916 127.44 376.002 127.795C376.145 128.69 374.464 129.912 373.707 130.376C372.946 130.792 372.163 131.165 371.361 131.495C371.361 131.495 371.527 129.871 368.945 129.304C365.417 128.529 358.699 133.371 358.699 133.371Z" fill="#455A64"/>
<path d="M374.98 126.464C374.735 126.412 374.488 126.374 374.24 126.349C373.554 126.323 372.868 126.369 372.192 126.487C369.952 126.864 367.761 127.486 365.657 128.34C363.539 129.155 361.592 130.361 359.92 131.897C359.421 132.365 358.982 132.893 358.612 133.469C358.36 133.882 358.262 134.134 358.239 134.123C358.217 134.111 358.239 134.054 358.285 133.933C358.348 133.754 358.425 133.579 358.515 133.411C358.852 132.798 359.277 132.237 359.777 131.748C361.429 130.139 363.393 128.885 365.548 128.064C367.671 127.198 369.893 126.597 372.163 126.275C372.855 126.177 373.556 126.164 374.251 126.234C374.449 126.249 374.642 126.296 374.825 126.372C374.928 126.424 374.985 126.452 374.98 126.464Z" fill="#263238"/>
<path d="M366.604 127.365C367.446 127.006 368.342 126.787 369.254 126.716C369.055 126.529 368.833 126.367 368.595 126.234C367.884 126.29 367.187 126.459 366.529 126.733L366.604 127.365Z" fill="#FAFAFA"/>
<path d="M371.819 131.69C371.925 131.542 371.99 131.367 372.007 131.185C372.024 131.003 371.992 130.82 371.914 130.654C371.836 130.489 371.716 130.347 371.565 130.244C371.414 130.14 371.238 130.079 371.056 130.067C371.176 130.018 371.285 129.946 371.376 129.853C371.467 129.761 371.538 129.65 371.585 129.529C371.631 129.408 371.652 129.278 371.646 129.149C371.64 129.019 371.607 128.892 371.549 128.776C371.414 128.55 371.207 128.376 370.962 128.281C370.717 128.185 370.447 128.174 370.195 128.248C369.945 128.331 369.719 128.472 369.534 128.659C369.35 128.847 369.212 129.075 369.134 129.326C369.027 129.168 368.881 129.039 368.711 128.953C368.54 128.867 368.35 128.826 368.159 128.834C367.968 128.842 367.782 128.899 367.619 128.999C367.457 129.099 367.322 129.24 367.229 129.407C367.178 129.263 367.075 129.144 366.939 129.074C366.804 129.004 366.647 128.987 366.501 129.028C366.21 129.124 365.943 129.283 365.72 129.493C365.496 129.705 365.207 129.837 364.9 129.866L364.699 129.952C364.864 130.216 365.119 130.41 365.417 130.499C365.715 130.588 366.035 130.565 366.317 130.434C366.315 130.629 366.376 130.82 366.491 130.978C366.607 131.136 366.771 131.251 366.958 131.308C367.145 131.364 367.346 131.358 367.529 131.29C367.713 131.223 367.869 131.097 367.975 130.933C368.011 131.078 368.082 131.211 368.182 131.321C368.283 131.431 368.409 131.515 368.55 131.564C368.69 131.613 368.841 131.626 368.988 131.602C369.135 131.578 369.274 131.517 369.392 131.426C369.456 131.594 369.559 131.744 369.692 131.865C369.824 131.986 369.984 132.073 370.157 132.121C370.33 132.169 370.512 132.176 370.688 132.141C370.864 132.106 371.029 132.03 371.17 131.92C371.317 132.152 371.412 132.413 371.449 132.685C371.487 132.957 371.466 133.234 371.388 133.497C371.578 133.455 371.751 133.361 371.889 133.225C372.027 133.089 372.124 132.917 372.169 132.728C372.214 132.54 372.205 132.342 372.143 132.159C372.081 131.975 371.969 131.813 371.819 131.69Z" fill="#263238"/>
<path d="M362.117 131.116C361.317 131.471 360.549 131.896 359.822 132.384C359.093 132.883 358.509 133.566 358.13 134.364L359.277 135.459C359.593 135.563 359.851 135.672 360.092 135.459C360.216 135.351 360.312 135.214 360.37 135.06C360.428 134.905 360.447 134.739 360.425 134.576C360.577 134.608 360.735 134.598 360.882 134.547C361.029 134.496 361.159 134.405 361.258 134.285C361.357 134.165 361.421 134.02 361.443 133.866C361.465 133.712 361.444 133.554 361.383 133.411C361.497 133.384 361.601 133.328 361.686 133.247C361.77 133.166 361.832 133.065 361.865 132.952C361.894 132.84 361.895 132.722 361.866 132.609C361.836 132.497 361.779 132.394 361.698 132.31C361.828 132.302 361.952 132.257 362.057 132.179C362.161 132.102 362.24 131.996 362.284 131.874C362.329 131.752 362.337 131.619 362.307 131.493C362.277 131.367 362.211 131.252 362.117 131.162V131.116Z" fill="#263238"/>
<path d="M372.915 147.753C372.915 147.753 376.306 149.79 377.327 151.603C378.348 153.416 383.775 166.645 383.551 168.814C383.327 170.982 378.233 172.319 378.233 172.319L372.915 165.435L375.347 163.983L372.915 159.296V147.753Z" fill="#455A64"/>
<path d="M378.245 172.302C378.245 172.302 365.922 174.769 361.447 169.433L362.744 164.93C362.744 164.93 370.884 166.857 373.432 166.031L378.245 172.302Z" fill="#FFBE9D"/>
<path d="M379.518 161.356C379.564 161.447 378.072 162.073 376.517 163.26C374.963 164.448 373.982 165.733 373.901 165.67C374.041 165.348 374.235 165.054 374.475 164.798C375.017 164.14 375.631 163.545 376.305 163.025C376.984 162.509 377.717 162.068 378.491 161.711C378.811 161.536 379.158 161.416 379.518 161.356Z" fill="#263238"/>
<path d="M375.565 163.817C375.126 163.122 374.755 162.386 374.458 161.62C374.065 160.899 373.727 160.149 373.448 159.376C373.99 160.006 374.422 160.721 374.728 161.493C375.114 162.225 375.396 163.007 375.565 163.817Z" fill="#263238"/>
<path d="M373.329 158.246C373.296 157.599 373.196 156.957 373.03 156.33C372.926 155.688 372.759 155.058 372.531 154.448C372.669 155.738 372.936 157.01 373.329 158.246Z" fill="#263238"/>
<path d="M351.206 149.474C351.442 149.721 354.826 151.964 355.957 155.785C357.087 159.606 358.332 163.593 358.332 163.593L362.743 164.167L360.254 174.344C358.569 174.084 356.96 173.465 355.535 172.529C354.111 171.592 352.905 170.36 351.998 168.917C350.029 165.486 348.437 161.853 347.248 158.08C347.248 158.08 347.621 145.723 351.206 149.474Z" fill="#455A64"/>
<path d="M361.229 163.966C361.229 163.966 359.359 159.778 359.107 159.721C358.854 159.663 355.246 158.395 355.246 158.395C355.136 158.689 355.136 159.013 355.246 159.308L353.943 159.474C353.943 159.474 354.138 160.271 354.58 160.38L354.11 160.799C354.346 161.11 354.647 161.364 354.993 161.545C355.126 161.611 355.272 161.645 355.421 161.645C355.569 161.645 355.715 161.611 355.848 161.545C355.848 161.545 355.687 161.843 356.422 162.314C357.156 162.784 358.435 163.461 358.435 163.461L361.229 163.966Z" fill="#FFBE9D"/>
<path d="M358.441 163.484C358.441 163.484 357.162 162.784 356.427 162.337C355.79 161.935 355.808 161.66 355.854 161.579C355.722 161.639 355.579 161.67 355.435 161.67C355.29 161.67 355.148 161.639 355.016 161.579C354.669 161.395 354.366 161.139 354.127 160.828L354.557 160.375C354.127 160.248 353.937 159.497 353.932 159.462L355.228 159.296C355.124 159.003 355.124 158.683 355.228 158.39C355.263 158.39 358.848 159.663 359.095 159.715C359.342 159.766 361.143 163.794 361.223 163.966L358.441 163.484ZM355.251 159.302L353.949 159.468C353.949 159.56 354.173 160.26 354.58 160.363L354.104 160.782C354.335 161.09 354.633 161.341 354.976 161.516C355.108 161.581 355.253 161.614 355.4 161.614C355.547 161.614 355.693 161.581 355.825 161.516V161.551C355.825 161.551 355.676 161.849 356.399 162.308C357.121 162.767 358.366 163.455 358.412 163.455L361.183 163.943C360.529 162.491 359.261 159.761 359.072 159.721C358.883 159.68 355.412 158.464 355.217 158.395C355.114 158.691 355.127 159.015 355.251 159.302Z" fill="#EB996E"/>
<path d="M355.359 159.319C356.122 159.689 356.912 159.998 357.723 160.243C358.056 160.363 358.383 160.449 358.641 160.575C358.872 160.685 359.061 160.866 359.18 161.092C359.398 161.482 359.478 161.763 359.513 161.752C359.499 161.496 359.428 161.247 359.306 161.023C359.185 160.764 358.984 160.551 358.733 160.415C358.427 160.277 358.112 160.158 357.792 160.059C357 159.754 356.187 159.507 355.359 159.319Z" fill="#EB996E"/>
<path d="M354.517 160.375C354.717 160.494 354.94 160.574 355.171 160.61C355.584 160.725 356.169 160.816 356.788 160.983C357.317 161.114 357.814 161.348 358.251 161.671C358.584 161.929 358.727 162.153 358.756 162.136C358.676 161.909 358.533 161.71 358.343 161.562C357.91 161.19 357.395 160.925 356.84 160.788C356.203 160.616 355.612 160.547 355.199 160.472C354.976 160.415 354.747 160.382 354.517 160.375Z" fill="#EB996E"/>
<path d="M357.827 162.291C357.615 162.004 357.308 161.801 356.961 161.717C356.634 161.57 356.266 161.535 355.917 161.62C355.917 161.683 356.376 161.711 356.898 161.901C357.42 162.09 357.793 162.337 357.827 162.291Z" fill="#EB996E"/>
<path d="M362.364 165.251L373.488 159.64L375.524 163.788C375.524 163.788 365.272 173.948 360.471 173.816" fill="#FFBE9D"/>
<path d="M355.607 153.49C355.624 153.771 355.674 154.048 355.757 154.317C355.877 154.816 356.049 155.504 356.256 156.261C356.462 157.019 356.657 157.707 356.829 158.2C356.893 158.471 356.989 158.733 357.116 158.981C357.096 158.703 357.046 158.428 356.967 158.16C356.847 157.661 356.674 156.973 356.468 156.21C356.261 155.447 356.066 154.77 355.894 154.282C355.829 154.008 355.733 153.742 355.607 153.49Z" fill="#263238"/>
<path d="M356.089 167.299C356.123 167.299 356.221 166.788 356.479 165.991C356.626 165.528 356.851 165.093 357.144 164.706C357.497 164.246 358.005 163.93 358.573 163.817C359.167 163.789 359.762 163.857 360.334 164.018L361.791 164.31C361.974 164.334 362.153 164.381 362.325 164.448C362.447 164.502 362.543 164.6 362.594 164.723C362.617 164.776 362.629 164.832 362.629 164.89C362.629 164.947 362.617 165.003 362.594 165.056C362.594 165.056 362.749 164.964 362.686 164.7C362.664 164.625 362.627 164.555 362.576 164.495C362.526 164.435 362.464 164.385 362.394 164.35C362.211 164.266 362.018 164.206 361.82 164.172L360.369 163.84C359.776 163.663 359.157 163.589 358.538 163.622C357.914 163.745 357.358 164.099 356.984 164.614C356.685 165.022 356.464 165.481 356.33 165.968C356.236 166.292 356.161 166.622 356.106 166.955C356.083 167.068 356.077 167.184 356.089 167.299Z" fill="#263238"/>
<path d="M354.557 165.062C354.861 164.524 355.268 164.052 355.756 163.673C356.295 163.352 356.873 163.101 357.477 162.927C357.285 162.897 357.088 162.913 356.903 162.973C356.456 163.067 356.032 163.25 355.658 163.513C355.28 163.776 354.967 164.124 354.746 164.528C354.637 164.686 354.572 164.87 354.557 165.062Z" fill="#263238"/>
<path d="M347.248 158.08C347.248 158.08 347.248 158.155 347.305 158.298C347.363 158.441 347.426 158.659 347.512 158.906C347.701 159.48 347.959 160.214 348.281 161.138C348.602 162.061 348.992 163.209 349.543 164.413C350.094 165.618 350.742 166.915 351.528 168.229C352.262 169.473 353.198 170.586 354.299 171.522C355.196 172.287 356.201 172.915 357.282 173.386C358.014 173.701 358.786 173.915 359.577 174.023C359.79 174.055 360.004 174.076 360.219 174.086C360.368 174.086 360.443 174.086 360.443 174.086C360.443 174.086 360.139 174.051 359.588 173.954C358.817 173.815 358.065 173.582 357.351 173.26C354.991 172.17 353.022 170.381 351.711 168.137C350.931 166.834 350.3 165.521 349.721 164.345C349.141 163.169 348.768 162.05 348.418 161.098C348.068 160.145 347.799 159.405 347.592 158.883L347.351 158.309C347.325 158.23 347.29 158.153 347.248 158.08Z" fill="#263238"/>
<path d="M350.438 149.716C350.438 149.773 351.287 150.083 352.256 150.662C353.226 151.242 353.92 151.844 353.977 151.81C353.039 150.777 351.811 150.051 350.455 149.727L350.438 149.716Z" fill="#263238"/>
<path d="M358.877 176.748C359.06 176.859 359.252 176.955 359.451 177.035C359.64 177.126 359.869 177.23 360.139 177.333C360.409 177.436 360.713 177.574 361.068 177.683C361.88 177.972 362.707 178.213 363.547 178.406C364.578 178.633 365.622 178.798 366.673 178.899C367.727 178.986 368.784 179.005 369.84 178.956C370.701 178.916 371.559 178.826 372.41 178.687C372.772 178.635 373.099 178.561 373.38 178.503C373.661 178.446 373.913 178.383 374.108 178.331C374.317 178.285 374.522 178.223 374.722 178.148C374.51 178.169 374.299 178.206 374.091 178.257C373.896 178.297 373.649 178.348 373.363 178.394C373.076 178.44 372.749 178.509 372.387 178.549C371.539 178.671 370.685 178.747 369.829 178.779C368.782 178.813 367.734 178.786 366.691 178.698C365.648 178.601 364.612 178.444 363.587 178.228C362.752 178.045 361.926 177.819 361.114 177.551C360.759 177.448 360.455 177.327 360.179 177.23C359.904 177.132 359.674 177.04 359.485 176.966C359.288 176.879 359.084 176.806 358.877 176.748Z" fill="#263238"/>
<path d="M367.911 182.525C368.683 182.426 369.44 182.233 370.166 181.951C370.912 181.737 371.628 181.433 372.3 181.045C372.3 180.993 371.313 181.36 370.103 181.762C368.892 182.163 367.9 182.473 367.911 182.525Z" fill="#263238"/>
<g opacity="0.3">
<path d="M376.402 172.606C373.86 173.108 371.248 173.147 368.692 172.72C367.763 172.439 366.792 172.323 365.823 172.376C365.055 172.563 364.313 172.844 363.614 173.214C362.294 173.757 360.86 173.964 359.441 173.816C358.021 173.669 356.66 173.172 355.479 172.37C355.895 173.163 356.493 173.845 357.226 174.359C357.959 174.873 358.804 175.204 359.69 175.325C361.465 175.55 363.267 175.389 364.974 174.855C365.99 174.523 367.041 174.311 368.106 174.223C369.46 174.189 370.786 174.631 372.122 174.654C373.69 174.699 375.23 174.234 376.511 173.328L376.402 172.606Z" fill="black"/>
</g>
<g opacity="0.3">
<path d="M371.999 181.441C371.429 182.398 370.641 183.209 369.701 183.806C368.76 184.404 367.692 184.773 366.583 184.883C366.104 184.943 365.618 184.904 365.155 184.768C364.923 184.7 364.707 184.585 364.522 184.43C364.336 184.275 364.185 184.083 364.076 183.867C364.59 183.537 365.16 183.302 365.757 183.173L371.936 181.481" fill="black"/>
</g>
<path d="M375.36 163.955C375.209 164.14 375.042 164.311 374.861 164.465C374.528 164.786 374.046 165.245 373.478 165.831C372.91 166.416 372.233 167.139 371.407 167.856C370.581 168.573 369.64 169.313 368.648 170.082C367.714 170.812 366.735 171.483 365.716 172.089C364.881 172.587 363.997 172.997 363.077 173.311C362.457 173.522 361.82 173.678 361.172 173.776C360.938 173.817 360.699 173.831 360.461 173.816C361.323 173.634 362.174 173.401 363.008 173.116C363.902 172.776 364.762 172.354 365.578 171.854C366.572 171.24 367.529 170.569 368.447 169.846C369.439 169.078 370.386 168.349 371.206 167.649C372.027 166.949 372.715 166.255 373.312 165.681C373.908 165.108 374.413 164.672 374.769 164.379C374.947 164.214 375.146 164.071 375.36 163.955Z" fill="#EB996E"/>
</svg>
